<svg width="25" height="25" viewBox="0 0 25 25" fill="none" xmlns="http://www.w3.org/2000/svg">
<path d="M9.63548 11.6557C10.3133 11.6557 10.8627 11.1062 10.8627 10.4284C10.8627 9.75064 10.3133 9.20117 9.63548 9.20117C8.95767 9.20117 8.4082 9.75064 8.4082 10.4284C8.4082 11.1062 8.95767 11.6557 9.63548 11.6557Z" fill="white"/>
<path d="M16.5913 10.4284C16.5913 11.1062 16.0418 11.6557 15.364 11.6557C14.6862 11.6557 14.1367 11.1062 14.1367 10.4284C14.1367 9.75064 14.6862 9.20117 15.364 9.20117C16.0418 9.20117 16.5913 9.75064 16.5913 10.4284Z" fill="white"/>
<path d="M9.95355 13.735C9.74857 13.3377 9.26165 13.178 8.86067 13.3786C8.4565 13.5807 8.29268 14.0721 8.49476 14.4762C8.56223 14.6108 8.64814 14.7368 8.73821 14.8569C8.88778 15.0564 9.11356 15.3132 9.43136 15.5675C10.0773 16.0842 11.0733 16.5649 12.4993 16.5649C13.9253 16.5649 14.9213 16.0842 15.5672 15.5675C15.885 15.3132 16.1108 15.0564 16.2604 14.8569C16.3508 14.7364 16.433 14.6103 16.5034 14.4771C16.7035 14.0783 16.537 13.5781 16.1379 13.3786C15.7369 13.178 15.25 13.3377 15.045 13.735C15.0338 13.7553 14.8798 14.0218 14.545 14.2897C14.1683 14.591 13.5278 14.9285 12.4993 14.9285C11.4707 14.9285 10.8303 14.591 10.4536 14.2897C10.1188 14.0218 9.96484 13.7553 9.95355 13.735Z" fill="white"/>
<path fill-rule="evenodd" clip-rule="evenodd" d="M12.5 21.4736C17.4705 21.4736 21.5 17.4442 21.5 12.4736C21.5 7.50307 17.4705 3.47363 12.5 3.47363C7.52944 3.47363 3.5 7.50307 3.5 12.4736C3.5 17.4442 7.52944 21.4736 12.5 21.4736ZM12.5 19.8317C8.43626 19.8317 5.14195 16.5374 5.14195 12.4736C5.14195 8.4099 8.43626 5.11558 12.5 5.11558C16.5637 5.11558 19.8581 8.4099 19.8581 12.4736C19.8581 16.5374 16.5637 19.8317 12.5 19.8317Z" fill="white"/>
</svg>
