<svg width="20" height="21" viewBox="0 0 20 21" fill="none" xmlns="http://www.w3.org/2000/svg">
<g clip-path="url(#clip0_292_5901)">
<path d="M7.84988 12.5298H5.10938V15.271H7.84988V12.5298Z" fill="#E2E5EE"/>
<path d="M6.59571 9.14233L7.06116 9.50704V7.84356C6.67368 7.6876 6.23813 7.69346 5.85475 7.86233C5.73809 7.91393 5.62554 7.98018 5.5212 8.06227L5.05634 8.4264L2.72266 10.2529C3.03159 10.644 3.50289 10.8938 4.03048 10.8938H4.12779L6.36592 9.14233C6.43333 9.08897 6.52771 9.08956 6.5963 9.14233H6.59571Z" fill="#E2E5EE"/>
<path d="M2.72344 8.60144C2.48837 8.30416 2.3471 7.92537 2.3471 7.51376V3.63271H7.06194V7.02591C7.1956 7.07986 7.32339 7.15257 7.44122 7.24462L7.5016 7.29212L8.40904 8.00277V3.63271C8.40904 2.86987 7.80466 2.24951 7.06194 2.24951H2.3471C1.60438 2.24951 1 2.86987 1 3.63271V7.51376C1 8.24318 1.24679 8.91455 1.65772 9.44578C1.69993 9.40708 1.74272 9.36897 1.78845 9.3332L2.72344 8.60144Z" fill="#E2E5EE"/>
<path d="M11.1742 10.9859L8.62476 8.98996L8.40904 8.8211L7.5016 8.11044L7.44122 8.06295C7.32339 7.97089 7.1956 7.8976 7.06194 7.84424V9.50771L8.40904 10.5626L10.3294 12.066C10.4965 12.1961 10.5927 12.3937 10.5927 12.6054V17.3273H2.37055V12.6048C2.37055 12.3926 2.46668 12.1955 2.63375 12.0648L2.74103 11.9809L4.12857 10.895H4.03126C3.50427 10.895 3.03296 10.6446 2.72344 10.2541L1.78845 10.9859C1.74272 11.0217 1.69934 11.0598 1.65772 11.0985C1.23859 11.4872 1 12.0273 1 12.6054V18.6987H11.9626V12.6054C11.9626 11.9686 11.6748 11.3788 11.1742 10.9865V10.9859Z" fill="#E2E5EE"/>
<path d="M12.2947 7.69494H10.6287V5.3126C10.6287 4.37386 11.3726 3.61102 12.2859 3.61102H16.1179V5.8626C16.5981 5.89895 17.0483 6.0473 17.4439 6.28242V3.61102C17.4439 2.86049 16.8495 2.24951 16.1179 2.24951H12.2859C10.641 2.24951 9.30273 3.62392 9.30273 5.3126V7.69494C9.30273 8.44547 9.89715 9.05644 10.6287 9.05644H12.2777V7.91599C12.2777 7.84094 12.2836 7.76706 12.2947 7.69553V7.69494Z" fill="#E2E5EE"/>
<path d="M17.4435 6.92579C17.0478 6.69008 16.5976 6.54173 16.1175 6.50596C16.0419 6.5001 15.9657 6.49658 15.8883 6.49658H14.1602C13.4708 6.49658 12.8981 7.01726 12.7943 7.69567C12.7832 7.76779 12.7773 7.84108 12.7773 7.91613V17.1441C12.7773 17.9269 13.3975 18.5637 14.1602 18.5637H15.8883C17.6036 18.5637 18.9993 17.1306 18.9993 15.3692V9.69043C18.9993 8.51069 18.3727 7.47872 17.4435 6.92579ZM17.6171 15.3692C17.6171 16.3484 16.8415 17.1435 15.8889 17.1435H14.1608V7.91613H15.8889C16.4013 7.91613 16.862 8.14657 17.1792 8.51128C17.4517 8.82498 17.6176 9.23835 17.6176 9.69043V15.3692H17.6171Z" fill="#E2E5EE"/>
</g>
<defs>
<clipPath id="clip0_292_5901">
<rect width="18" height="16.4483" fill="white" transform="translate(1 2.24951)"/>
</clipPath>
</defs>
</svg>
