<svg width="20" height="21" viewBox="0 0 20 21" fill="none" xmlns="http://www.w3.org/2000/svg">
<path d="M15.7263 19.9736H4.27263C3.62662 19.9736 2.99317 19.7113 2.53692 19.2536C2.07369 18.7904 1.81836 18.175 1.81836 17.5192V6.0648C1.81836 5.88759 1.87557 5.71596 1.98161 5.57363L4.43587 2.30014C4.59075 2.09503 4.83352 1.97363 5.09025 1.97363H14.9087C15.1654 1.97363 15.4082 2.09503 15.5631 2.30014L18.0174 5.57363C18.1234 5.71596 18.1806 5.88759 18.1806 6.0648V17.5192C18.1806 18.175 17.9253 18.7918 17.462 19.255C16.9988 19.7197 16.3821 19.9736 15.7263 19.9736ZM3.455 6.33689V17.5192C3.455 17.7383 3.54011 17.9434 3.69499 18.0983C3.84986 18.2532 4.05776 18.3383 4.27402 18.3383H15.7277C15.9468 18.3383 16.1519 18.2532 16.3068 18.0983C16.4616 17.9434 16.5454 17.7383 16.5454 17.5192V6.33689L14.4999 3.60898H5.50046L3.455 6.33689Z" fill="#E2E5EE"/>
<path d="M17.363 6.88242H2.63598C2.18392 6.88242 1.81836 6.51544 1.81836 6.06474C1.81836 5.61405 2.18531 5.24707 2.63598 5.24707H17.363C17.815 5.24707 18.1806 5.61405 18.1806 6.06474C18.1806 6.51544 17.8136 6.88242 17.363 6.88242Z" fill="#E2E5EE"/>
<path d="M13.2735 13.4279C12.8214 13.4279 12.4559 13.0609 12.4559 12.6102C12.4559 11.9642 12.1936 11.3321 11.7373 10.8744C11.2741 10.4097 10.6574 10.1558 10.0016 10.1558C9.34585 10.1558 8.72914 10.4111 8.26592 10.8744C7.80269 11.3376 7.54736 11.9544 7.54736 12.6102C7.54736 13.0623 7.1804 13.4279 6.72973 13.4279C6.27906 13.4279 5.91211 13.0609 5.91211 12.6102C5.91211 11.5176 6.33766 10.4907 7.11064 9.71765C7.88362 8.94462 8.91053 8.51904 10.003 8.51904C11.0955 8.51904 12.1238 8.94462 12.8954 9.71765C13.667 10.4907 14.0939 11.5176 14.0939 12.6102C14.0939 13.0623 13.727 13.4279 13.2763 13.4279H13.2735Z" fill="#E2E5EE"/>
</svg>
