<svg width="20" height="21" viewBox="0 0 20 21" fill="none" xmlns="http://www.w3.org/2000/svg">
<path d="M1 10.4097C1.35254 10.4005 1.63869 10.3065 1.85845 10.1277C2.08279 9.94429 2.23159 9.6944 2.30485 9.37803C2.3781 9.06166 2.41701 8.52063 2.42159 7.75491C2.42617 6.98922 2.43991 6.48486 2.4628 6.24184C2.504 5.85671 2.57955 5.54721 2.68943 5.31337C2.80389 5.07954 2.94353 4.89384 3.10836 4.75628C3.27318 4.61415 3.48378 4.50641 3.74018 4.43303C3.91415 4.38719 4.19801 4.36427 4.59176 4.36426H4.97635V5.44404H4.76345C4.28729 5.44405 3.97138 5.53117 3.81572 5.70539C3.66005 5.87505 3.58222 6.2579 3.58222 6.85395C3.58222 8.05524 3.55704 8.81407 3.50668 9.13043C3.42426 9.62104 3.28233 9.99931 3.08089 10.2652C2.88401 10.5312 2.57268 10.7673 2.14689 10.9736C2.65051 11.1845 3.0145 11.5078 3.23884 11.9434C3.46776 12.3744 3.58222 13.0828 3.58222 14.0686C3.58222 14.9626 3.59137 15.4945 3.60969 15.6642C3.64632 15.9759 3.73788 16.1937 3.8844 16.3175C4.03548 16.4413 4.3285 16.5032 4.76345 16.5032H4.97635V17.583H4.59176C4.14307 17.583 3.81801 17.5463 3.61656 17.473C3.32354 17.3675 3.08088 17.1956 2.88859 16.9571C2.6963 16.7233 2.57039 16.4253 2.51087 16.0631C2.45593 15.7008 2.42617 15.1071 2.42159 14.2818C2.41701 13.4564 2.3781 12.8856 2.30485 12.5692C2.23159 12.2529 2.08279 12.003 1.85845 11.8196C1.63869 11.6362 1.35254 11.5399 1 11.5307V10.4097ZM5.69744 10.4097C6.04998 10.4005 6.33613 10.3065 6.5559 10.1277C6.78024 9.94429 6.92903 9.6944 7.00229 9.37803C7.07554 9.06166 7.11446 8.52063 7.11904 7.75491C7.12362 6.98922 7.13735 6.48486 7.16024 6.24184C7.20145 5.85671 7.27699 5.54721 7.38688 5.31337C7.50133 5.07954 7.64097 4.89384 7.8058 4.75628C7.97062 4.61415 8.18123 4.50641 8.43762 4.43303C8.6116 4.38719 8.89546 4.36427 9.2892 4.36426H9.67379V5.44404H9.46089C8.98474 5.44405 8.66883 5.53117 8.51316 5.70539C8.35749 5.87505 8.27966 6.2579 8.27966 6.85395C8.27966 8.05524 8.25448 8.81407 8.20412 9.13043C8.12171 9.62104 7.97978 9.99931 7.77833 10.2652C7.58146 10.5312 7.27012 10.7673 6.84433 10.9736C7.34796 11.1845 7.71194 11.5078 7.93628 11.9434C8.1652 12.3744 8.27966 13.0828 8.27966 14.0686C8.27966 14.9626 8.28882 15.4945 8.30714 15.6642C8.34376 15.9759 8.43533 16.1937 8.58184 16.3175C8.73292 16.4413 9.02594 16.5032 9.46089 16.5032H9.67379V17.583H9.2892C8.84052 17.583 8.51545 17.5463 8.314 17.473C8.02098 17.3675 7.77833 17.1956 7.58604 16.9571C7.39374 16.7233 7.26784 16.4253 7.20832 16.0631C7.15338 15.7008 7.12362 15.1071 7.11904 14.2818C7.11446 13.4564 7.07554 12.8856 7.00229 12.5692C6.92903 12.2529 6.78024 12.003 6.5559 11.8196C6.33613 11.6362 6.04998 11.5399 5.69744 11.5307V10.4097ZM14.3026 10.4097V11.5307C13.95 11.5399 13.6616 11.6362 13.4372 11.8196C13.2175 12.003 13.071 12.2529 12.9977 12.5692C12.9245 12.881 12.8855 13.4198 12.881 14.1855C12.8764 14.9512 12.8626 15.4555 12.8398 15.6985C12.7985 16.0883 12.7207 16.3978 12.6063 16.627C12.4964 16.8609 12.359 17.0465 12.1942 17.1841C12.0294 17.3262 11.8188 17.434 11.5624 17.5074C11.3884 17.5578 11.1045 17.583 10.7108 17.583H10.3262V16.5032H10.5391C11.0153 16.5032 11.3312 16.4161 11.4868 16.2419C11.6425 16.0722 11.7203 15.6871 11.7203 15.0864C11.7203 13.9402 11.7409 13.2134 11.7821 12.9062C11.8554 12.3973 12.0019 11.9915 12.2217 11.6889C12.4414 11.3817 12.7528 11.1433 13.1557 10.9736C12.6291 10.7215 12.2583 10.389 12.0431 9.97638C11.8279 9.55914 11.7203 8.85763 11.7203 7.87183C11.7203 6.97775 11.7089 6.44359 11.686 6.26935C11.6539 5.96216 11.5624 5.74896 11.4113 5.62974C11.2648 5.50595 10.9741 5.44405 10.5391 5.44404H10.3262V4.36426H10.7108C11.1595 4.36427 11.4845 4.40095 11.686 4.4743C11.979 4.57518 12.2217 4.74483 12.414 4.98324C12.6063 5.22167 12.7299 5.522 12.7848 5.88421C12.8443 6.24644 12.8764 6.8402 12.881 7.66551C12.8855 8.49082 12.9245 9.06166 12.9977 9.37803C13.071 9.68982 13.2175 9.93741 13.4372 10.1208C13.6616 10.3042 13.95 10.4005 14.3026 10.4097ZM19 10.4097V11.5307C18.6475 11.5399 18.359 11.6362 18.1347 11.8196C17.9149 12.003 17.7684 12.2529 17.6952 12.5692C17.6219 12.881 17.583 13.4198 17.5784 14.1855C17.5738 14.9512 17.5601 15.4555 17.5372 15.6985C17.496 16.0883 17.4182 16.3978 17.3037 16.627C17.1938 16.8609 17.0565 17.0465 16.8916 17.1841C16.7268 17.3262 16.5162 17.434 16.2598 17.5074C16.0858 17.5578 15.802 17.583 15.4082 17.583H15.0237V16.5032H15.2366C15.7127 16.5032 16.0286 16.4161 16.1843 16.2419C16.3399 16.0722 16.4178 15.6871 16.4178 15.0864C16.4178 13.9402 16.4384 13.2134 16.4796 12.9062C16.5528 12.3973 16.6994 11.9915 16.9191 11.6889C17.1389 11.3817 17.4502 11.1433 17.8531 10.9736C17.3266 10.7215 16.9557 10.389 16.7406 9.97638C16.5254 9.55914 16.4178 8.85763 16.4178 7.87183C16.4178 6.97775 16.4063 6.44359 16.3834 6.26935C16.3514 5.96216 16.2598 5.74896 16.1087 5.62974C15.9622 5.50595 15.6715 5.44405 15.2366 5.44404H15.0237V4.36426H15.4082C15.8569 4.36427 16.182 4.40095 16.3834 4.4743C16.6765 4.57518 16.9191 4.74483 17.1114 4.98324C17.3037 5.22167 17.4273 5.522 17.4823 5.88421C17.5418 6.24644 17.5738 6.8402 17.5784 7.66551C17.583 8.49082 17.6219 9.06166 17.6952 9.37803C17.7684 9.68982 17.9149 9.93741 18.1347 10.1208C18.359 10.3042 18.6475 10.4005 19 10.4097Z" fill="white"/>
</svg>
