<svg width="25" height="25" viewBox="0 0 25 25" fill="none" xmlns="http://www.w3.org/2000/svg">
<path d="M6.5 13.2236H8.75V14.7236H6.5V13.2236ZM10.25 14.7236H12.5V13.2236H10.25V14.7236ZM6.5 17.7236H8.75V16.2236H6.5V17.7236ZM10.25 17.7236H12.5V16.2236H10.25V17.7236ZM6.5 8.72363H8.75V7.22363H6.5V8.72363ZM10.25 8.72363H12.5V7.22363H10.25V8.72363ZM6.5 11.7236H8.75V10.2236H6.5V11.7236ZM10.25 11.7236H12.5V10.2236H10.25V11.7236ZM21.5 9.47363V21.4736H3.5V5.72363C3.5 5.1269 3.73705 4.5546 4.15901 4.13264C4.58097 3.71069 5.15326 3.47363 5.75 3.47363H13.25C13.8467 3.47363 14.419 3.71069 14.841 4.13264C15.2629 4.5546 15.5 5.1269 15.5 5.72363V7.22363H19.25C19.8467 7.22363 20.419 7.46069 20.841 7.88264C21.2629 8.3046 21.5 8.8769 21.5 9.47363ZM14 5.72363C14 5.52472 13.921 5.33395 13.7803 5.1933C13.6397 5.05265 13.4489 4.97363 13.25 4.97363H5.75C5.55109 4.97363 5.36032 5.05265 5.21967 5.1933C5.07902 5.33395 5 5.52472 5 5.72363V19.9736H14V5.72363ZM20 9.47363C20 9.27472 19.921 9.08396 19.7803 8.9433C19.6397 8.80265 19.4489 8.72363 19.25 8.72363H15.5V19.9736H20V9.47363ZM17 14.7236H18.5V13.2236H17V14.7236ZM17 17.7236H18.5V16.2236H17V17.7236ZM17 11.7236H18.5V10.2236H17V11.7236Z" fill="white"/>
</svg>
