<svg width="20" height="21" viewBox="0 0 20 21" fill="none" xmlns="http://www.w3.org/2000/svg">
<path d="M12.1368 11.0339L8.05075 7.83513C7.43275 7.35138 6.568 7.35063 5.95 7.83513L1.86325 11.0331C1.315 11.4629 1 12.1094 1 12.8054V19.4736H13V12.8054C13 12.1086 12.685 11.4629 12.1368 11.0339ZM11.5 17.9736H2.5V12.8054C2.5 12.5729 2.605 12.3576 2.788 12.2144L6.874 9.01713C6.9475 8.95863 7.051 8.95938 7.126 9.01713L11.212 12.2159C11.395 12.3584 11.5 12.5744 11.5 12.8061V17.9736ZM5.5 12.7236H8.5V15.7236H5.5V12.7236ZM14.5 11.2236H16V12.7236H14.5V11.2236ZM14.5 14.2236H16V15.7236H14.5V14.2236ZM11.5 5.22363H13V6.72363H11.5V5.22363ZM16 6.72363H14.5V5.22363H16V6.72363ZM11.5 8.22363H13V9.72363H11.5V8.22363ZM14.5 8.22363H16V9.72363H14.5V8.22363ZM19 3.72363V19.4736H14.5V17.9736H17.5V3.72363C17.5 3.30963 17.164 2.97363 16.75 2.97363H10.75C10.336 2.97363 10 3.30963 10 3.72363V7.45713L8.5 6.28338V3.72363C8.5 3.71088 8.5 3.69738 8.50075 3.68463C8.52175 2.46213 9.52225 1.47363 10.75 1.47363H16.75C17.9905 1.47363 19 2.48313 19 3.72363Z" fill="white"/>
</svg>
