<svg width="20" height="21" viewBox="0 0 20 21" fill="none" xmlns="http://www.w3.org/2000/svg">
<path d="M9.99972 10.4733C12.4814 10.4733 14.4995 8.45509 14.4995 5.97345C14.4995 3.4918 12.4814 1.47363 9.99972 1.47363C7.51807 1.47363 5.49991 3.4918 5.49991 5.97345C5.49991 8.45509 7.51807 10.4733 9.99972 10.4733ZM9.99972 2.97357C11.6542 2.97357 12.9996 4.31901 12.9996 5.97345C12.9996 7.62788 11.6542 8.97332 9.99972 8.97332C8.34529 8.97332 6.99984 7.62788 6.99984 5.97345C6.99984 4.31901 8.34529 2.97357 9.99972 2.97357ZM16.7494 18.7229C16.7494 19.1369 16.4142 19.4729 15.9995 19.4729C15.5847 19.4729 15.2495 19.1369 15.2495 18.7229C15.2495 16.4588 13.8058 14.5306 11.7929 13.7956L10.6552 15.5025L11.4749 18.4949C11.6122 18.9944 11.1712 19.4736 10.5742 19.4736H9.42524C8.82827 19.4736 8.38804 18.9944 8.52453 18.4949L9.34425 15.5025L8.20654 13.7956C6.19363 14.5306 4.74994 16.4588 4.74994 18.7237C4.74994 19.1376 4.41395 19.4736 3.99997 19.4736C3.58599 19.4736 3.25 19.1376 3.25 18.7237C3.25 15.0023 6.27837 11.9739 9.99972 11.9739C13.7211 11.9739 16.7494 15.0016 16.7494 18.7229Z" fill="white"/>
</svg>
