<svg width="20" height="21" viewBox="0 0 20 21" fill="none" xmlns="http://www.w3.org/2000/svg">
<path d="M18.6894 15.1475L12.7356 3.15679C12.485 2.65188 12.0958 2.22647 11.6122 1.92892C11.1287 1.63137 10.5703 1.47363 10.0004 1.47363C9.43049 1.47363 8.87204 1.63137 8.38852 1.92892C7.905 2.22647 7.51581 2.65188 7.26521 3.15679L1.31064 15.1475C1.08314 15.6055 0.977603 16.1132 1.00396 16.6225C1.03032 17.1319 1.18771 17.6263 1.4613 18.0591C1.73489 18.4919 2.11567 18.8488 2.56777 19.0963C3.01987 19.3438 3.52839 19.4736 4.04543 19.4736H15.9538C16.4709 19.4738 16.9795 19.344 17.4317 19.0966C17.8839 18.8491 18.2648 18.4922 18.5385 18.0594C18.8122 17.6266 18.9696 17.1322 18.996 16.6227C19.0224 16.1133 18.9169 15.6056 18.6894 15.1475ZM15.7863 12.7141H4.21369L6.07902 8.95875H13.921L15.7863 12.7141ZM8.62956 3.81773C8.7549 3.56537 8.94949 3.35277 9.19121 3.20406C9.43293 3.05536 9.71208 2.97653 9.99695 2.97653C10.2818 2.97653 10.561 3.05536 10.8027 3.20406C11.0444 3.35277 11.239 3.56537 11.3644 3.81773L13.1741 7.45663H6.82514L8.62956 3.81773ZM17.2435 17.2618C17.1086 17.4803 16.9183 17.6605 16.6913 17.7845C16.4644 17.9086 16.2087 17.9722 15.9492 17.9693H4.04543C3.78666 17.9698 3.53202 17.9052 3.30555 17.7817C3.07909 17.6582 2.88828 17.4797 2.75112 17.2633C2.61397 17.0468 2.53501 16.7994 2.52169 16.5445C2.50837 16.2895 2.56113 16.0354 2.67499 15.8062L3.46832 14.2162H16.5309L17.3212 15.8084C17.4378 16.0366 17.4923 16.2908 17.4792 16.546C17.4661 16.8012 17.386 17.0486 17.2466 17.264L17.2435 17.2618Z" fill="white"/>
</svg>
