<svg width="20" height="21" viewBox="0 0 20 21" fill="none" xmlns="http://www.w3.org/2000/svg">
<path d="M7.75088 19.4732H1.7501C1.55116 19.4732 1.36037 19.3942 1.2197 19.2536C1.07903 19.113 1 18.9223 1 18.7234C1 18.5246 1.07903 18.3338 1.2197 18.1932C1.36037 18.0526 1.55116 17.9736 1.7501 17.9736H7.75088C7.94981 17.9736 8.1406 18.0526 8.28127 18.1932C8.42194 18.3338 8.50097 18.5246 8.50097 18.7234C8.50097 18.9223 8.42194 19.113 8.28127 19.2536C8.1406 19.3942 7.94981 19.4732 7.75088 19.4732Z" fill="white"/>
<path d="M6.25068 16.4742H1.7501C1.55116 16.4742 1.36037 16.3952 1.2197 16.2546C1.07903 16.1139 1 15.9232 1 15.7244C1 15.5255 1.07903 15.3348 1.2197 15.1942C1.36037 15.0536 1.55116 14.9746 1.7501 14.9746H6.25068C6.44962 14.9746 6.64041 15.0536 6.78108 15.1942C6.92175 15.3348 7.00078 15.5255 7.00078 15.7244C7.00078 15.9232 6.92175 16.1139 6.78108 16.2546C6.64041 16.3952 6.44962 16.4742 6.25068 16.4742Z" fill="white"/>
<path d="M4.75049 13.4751H1.7501C1.55116 13.4751 1.36037 13.3961 1.2197 13.2555C1.07903 13.1149 1 12.9242 1 12.7254C1 12.5265 1.07903 12.3358 1.2197 12.1952C1.36037 12.0546 1.55116 11.9756 1.7501 11.9756H4.75049C4.94942 11.9756 5.14021 12.0546 5.28088 12.1952C5.42156 12.3358 5.50058 12.5265 5.50058 12.7254C5.50058 12.9242 5.42156 13.1149 5.28088 13.2555C5.14021 13.3961 4.94942 13.4751 4.75049 13.4751Z" fill="white"/>
<path d="M10.7488 19.4396C10.5499 19.4484 10.3556 19.3779 10.2086 19.2436C10.0617 19.1092 9.97418 18.922 9.96533 18.7232C9.95648 18.5243 10.027 18.3301 10.1614 18.1832C10.2958 18.0364 10.4831 17.9489 10.682 17.94C12.1016 17.8102 13.4547 17.2787 14.583 16.4079C15.7112 15.5371 16.5678 14.3629 17.0526 13.023C17.5373 11.6831 17.63 10.2328 17.3198 8.84208C17.0097 7.45137 16.3095 6.17778 15.3013 5.17049C14.2932 4.1632 13.0187 3.46392 11.6273 3.15454C10.2358 2.84516 8.78497 2.9385 7.44468 3.42363C6.10439 3.90875 4.93014 4.76558 4.05946 5.89375C3.18878 7.02191 2.65772 8.37471 2.52849 9.79369C2.51059 9.99175 2.4147 10.1746 2.26193 10.302C2.10917 10.4294 1.91203 10.4909 1.71388 10.473C1.51574 10.4551 1.33283 10.3593 1.20538 10.2065C1.07793 10.0538 1.01639 9.85679 1.0343 9.65873C1.24349 7.3519 2.33467 5.21458 4.08069 3.69168C5.82671 2.16878 8.09304 1.37764 10.4079 1.48294C12.7228 1.58825 14.9079 2.58188 16.5083 4.25701C18.1087 5.93214 19.0012 8.1597 18.9999 10.476C19.0114 12.7241 18.1758 14.8941 16.6595 16.5544C15.1431 18.2148 13.0571 19.2437 10.8163 19.4366C10.7938 19.4388 10.7706 19.4396 10.7488 19.4396Z" fill="white"/>
<path d="M10.0021 5.97656C9.80311 5.97656 9.61232 6.05556 9.47165 6.19617C9.33098 6.33678 9.25195 6.52749 9.25195 6.72634V10.4752C9.252 10.6741 9.33105 10.8647 9.47173 11.0053L11.722 13.2547C11.8635 13.3912 12.053 13.4668 12.2496 13.4651C12.4463 13.4634 12.6344 13.3845 12.7735 13.2455C12.9126 13.1065 12.9915 12.9184 12.9932 12.7219C12.9949 12.5253 12.9193 12.3359 12.7827 12.1945L10.7521 10.1648V6.72634C10.7521 6.52749 10.6731 6.33678 10.5324 6.19617C10.3918 6.05556 10.201 5.97656 10.0021 5.97656Z" fill="white"/>
</svg>
