<svg width="20" height="21" viewBox="0 0 20 21" fill="none" xmlns="http://www.w3.org/2000/svg">
<path d="M10 19.4736C5.03667 19.4736 1 15.437 1 10.4736C1 5.5103 5.03667 1.47363 10 1.47363C14.9633 1.47363 19 5.5103 19 10.4736C19 15.437 14.9633 19.4736 10 19.4736ZM10 2.80697C5.77333 2.80697 2.33333 6.24697 2.33333 10.4736C2.33333 14.7003 5.77333 18.1403 10 18.1403C14.2267 18.1403 17.6667 14.7003 17.6667 10.4736C17.6667 6.24697 14.2267 2.80697 10 2.80697Z" fill="white"/>
<path d="M9.92594 13.0325C6.77427 13.0325 4.21094 10.4692 4.21094 7.31754C4.21094 4.16587 6.77594 1.60254 9.92594 1.60254C13.0759 1.60254 15.6409 4.16587 15.6409 7.31754C15.6409 10.4692 13.0776 13.0325 9.92594 13.0325ZM9.92594 2.93587C7.50927 2.93587 5.54427 4.90087 5.54427 7.31754C5.54427 9.73421 7.50927 11.6992 9.92594 11.6992C12.3426 11.6992 14.3076 9.73421 14.3076 7.31754C14.3076 4.90087 12.3426 2.93587 9.92594 2.93587Z" fill="white"/>
<path d="M11.8542 11.1117C9.76417 11.1117 8.0625 9.40999 8.0625 7.31999C8.0625 5.22999 9.76417 3.52832 11.8542 3.52832C13.9442 3.52832 15.6458 5.22832 15.6458 7.31999C15.6458 9.41165 13.9458 11.1117 11.8542 11.1117ZM11.8542 4.86165C10.4992 4.86165 9.39583 5.96499 9.39583 7.31999C9.39583 8.67499 10.4992 9.77832 11.8542 9.77832C13.2092 9.77832 14.3125 8.67499 14.3125 7.31999C14.3125 5.96499 13.2092 4.86165 11.8542 4.86165Z" fill="white"/>
<path d="M11.8723 11.0776C10.4356 11.0776 9.26562 9.90926 9.26562 8.47092C9.26562 7.03259 10.434 5.86426 11.8723 5.86426C13.3106 5.86426 14.479 7.03259 14.479 8.47092C14.479 9.90926 13.3106 11.0776 11.8723 11.0776ZM11.8723 7.19926C11.1706 7.19926 10.599 7.77092 10.599 8.47259C10.599 9.17426 11.1706 9.74592 11.8723 9.74592C12.574 9.74592 13.1456 9.17426 13.1456 8.47259C13.1456 7.77092 12.574 7.19926 11.8723 7.19926Z" fill="white"/>
</svg>
