<svg width="20" height="21" viewBox="0 0 20 21" fill="none" xmlns="http://www.w3.org/2000/svg">
<path fill-rule="evenodd" clip-rule="evenodd" d="M15.9914 12.8552C15.1181 13.164 14.4922 13.9976 14.4922 14.9759C14.4922 15.9541 15.1181 16.7877 15.9914 17.0966V18.724C15.9914 19.1378 16.3273 19.4736 16.7411 19.4736C17.1549 19.4736 17.4907 19.1378 17.4907 18.724V17.0966C18.364 16.7877 18.9899 15.9541 18.9899 14.9759C18.9899 13.9976 18.364 13.164 17.4907 12.8552V2.22326C17.4907 1.80946 17.1549 1.47363 16.7411 1.47363C16.3273 1.47363 15.9914 1.80946 15.9914 2.22326V12.8552ZM16.7411 14.2263C17.1549 14.2263 17.4907 14.5621 17.4907 14.9759C17.4907 15.3897 17.1549 15.7255 16.7411 15.7255C16.3273 15.7255 15.9914 15.3897 15.9914 14.9759C15.9914 14.5621 16.3273 14.2263 16.7411 14.2263Z" fill="white"/>
<path fill-rule="evenodd" clip-rule="evenodd" d="M9.24925 3.85069C8.37669 4.15954 7.75 4.99237 7.75 5.97138C7.75 6.94964 8.37669 7.78323 9.24925 8.09207V18.724C9.24925 19.1378 9.58508 19.4736 9.99888 19.4736C10.4127 19.4736 10.7485 19.1378 10.7485 18.724V8.09207C11.6218 7.78323 12.2478 6.94964 12.2478 5.97138C12.2478 4.99237 11.6218 4.15954 10.7485 3.85069V2.22326C10.7485 1.80946 10.4127 1.47363 9.99888 1.47363C9.58508 1.47363 9.24925 1.80946 9.24925 2.22326V3.85069ZM9.99888 6.72101C9.58508 6.72101 9.24925 6.38518 9.24925 5.97138C9.24925 5.55759 9.58508 5.22176 9.99888 5.22176C10.4127 5.22176 10.7485 5.55759 10.7485 5.97138C10.7485 6.38518 10.4127 6.72101 9.99888 6.72101Z" fill="white"/>
<path fill-rule="evenodd" clip-rule="evenodd" d="M2.49852 12.8589C1.6312 13.1708 1.00977 14.0014 1.00977 14.9759C1.00977 15.9504 1.6312 16.781 2.49852 17.0928V18.724C2.49852 19.1378 2.83435 19.4736 3.24815 19.4736C3.66194 19.4736 3.99777 19.1378 3.99777 18.724V17.1003C4.87633 16.7945 5.50752 15.9579 5.50752 14.9759C5.50752 13.9939 4.87633 13.1573 3.99777 12.8514V2.22326C3.99777 1.80946 3.66194 1.47363 3.24815 1.47363C2.83435 1.47363 2.49852 1.80946 2.49852 2.22326V12.8589ZM3.25864 15.7255C2.84485 15.7255 2.50902 15.3897 2.50902 14.9759C2.50902 14.5621 2.84485 14.2263 3.25864 14.2263C3.67243 14.2263 4.00827 14.5621 4.00827 14.9759C4.00827 15.3897 3.67243 15.7255 3.25864 15.7255Z" fill="white"/>
</svg>
