<svg width="20" height="21" viewBox="0 0 20 21" fill="none" xmlns="http://www.w3.org/2000/svg">
<path d="M3.14966 20.4726C3.02414 20.4397 2.89696 20.411 2.77311 20.3735C1.31969 19.9348 0.781527 18.2135 1.75233 17.1092C1.80065 17.0545 1.85063 17.0007 1.90395 16.9423C1.03867 15.9559 1.03089 14.9685 1.89617 13.978C1.04311 12.796 1.04255 12.0079 1.90506 11.0293C1.88895 11.0064 1.87396 10.9782 1.8523 10.9552C1.21639 10.2839 1.08088 9.52081 1.46075 8.70866C1.84341 7.89025 2.55318 7.49278 3.50344 7.4813C4.03715 7.47504 4.57087 7.48026 5.10459 7.48026C5.17901 7.48026 5.25399 7.48026 5.34063 7.48026V5.86743C5.12292 5.86743 4.91021 5.86639 4.6975 5.86743C4.19488 5.87056 3.80556 5.67913 3.58285 5.25193C3.36015 4.82421 3.43846 4.42152 3.75058 4.04961C4.62141 3.01213 5.48669 1.97099 6.35752 0.934021C6.87291 0.320605 7.72875 0.320083 8.24359 0.932978C9.12331 1.98038 9.99747 3.03143 10.8772 4.07882C11.1832 4.44343 11.2315 4.83621 11.0205 5.24724C10.8083 5.66035 10.4401 5.8617 9.95193 5.86743C9.73089 5.87004 9.50985 5.86743 9.27215 5.86743V7.47087C9.3399 7.474 9.41266 7.48026 9.48597 7.48026C10.0264 7.4813 10.5673 7.47557 11.1077 7.48182C12.1662 7.49434 12.9743 8.07542 13.2703 9.02788C13.2814 9.0644 13.2959 9.10039 13.3114 9.14368C14.1212 9.22662 14.8948 9.42588 15.5979 9.80978C17.6761 10.9438 18.7858 12.6395 18.7491 14.9039C18.7036 17.7409 16.5271 20.0042 13.5397 20.4236C13.4314 20.4387 13.3231 20.4569 13.2148 20.4736H3.14966V20.4726ZM17.5106 14.7875C17.5123 12.2827 15.3569 10.2907 12.6433 10.2886C10.0952 10.2865 7.92425 12.3349 7.92202 14.7422C7.9198 17.2589 10.0408 19.2995 12.6594 19.3005C15.3624 19.3016 17.509 17.3043 17.5106 14.7881V14.7875ZM11.9829 9.13951C11.7669 8.78481 11.4509 8.65441 11.0555 8.65441C8.54738 8.65493 6.03929 8.65337 3.5312 8.65806C3.3757 8.65806 3.2102 8.68519 3.06746 8.741C2.65704 8.90113 2.441 9.32103 2.53097 9.7378C2.61816 10.1431 3.00748 10.4352 3.48289 10.4357C5.22178 10.4388 6.96122 10.4383 8.70011 10.4331C8.79286 10.4331 8.9006 10.3898 8.97558 10.3356C9.60871 9.87864 10.3007 9.53281 11.0727 9.33668C11.3643 9.26261 11.6619 9.20888 11.9829 9.14003V9.13951ZM7.30111 1.70444C6.46582 2.70385 5.64831 3.68188 4.80246 4.69381C5.04905 4.69381 5.24732 4.6912 5.44559 4.69381C6.08817 4.70319 6.58801 5.16691 6.59967 5.77146C6.60689 6.1418 6.60133 6.51267 6.60133 6.88301C6.60133 7.07601 6.60133 7.26901 6.60133 7.46461H8.00366C8.00366 7.37959 8.00366 7.30969 8.00366 7.23927C8.00366 6.76461 7.99922 6.28994 8.00478 5.81527C8.01255 5.14552 8.49962 4.69641 9.21272 4.69276C9.39489 4.69172 9.5765 4.69276 9.79976 4.69276C8.95336 3.68031 8.13807 2.70542 7.30056 1.7034L7.30111 1.70444ZM9.02167 19.2885C8.37132 18.7972 7.85871 18.249 7.46217 17.6053C7.43329 17.5578 7.34054 17.5197 7.27779 17.5197C6.01041 17.515 4.74359 17.5124 3.47622 17.5187C3.05747 17.5208 2.74479 17.7086 2.5804 18.0753C2.3177 18.6615 2.77811 19.2958 3.47344 19.2979C5.28065 19.3037 7.08785 19.3 8.8956 19.2995C8.9217 19.2995 8.94781 19.2953 9.02167 19.2885ZM7.69987 11.6104C6.26644 11.6104 4.87411 11.6083 3.48122 11.6114C2.93362 11.6125 2.52153 11.9896 2.51264 12.4857C2.50431 12.9817 2.90141 13.3828 3.44901 13.3891C4.53699 13.4011 5.62498 13.3912 6.71297 13.3959C6.83904 13.3964 6.87291 13.3432 6.90346 13.242C7.0623 12.7136 7.3 12.217 7.6149 11.7533C7.63934 11.7168 7.65989 11.6782 7.69932 11.6104H7.69987ZM6.62855 14.5773C6.64465 14.5851 6.63299 14.5747 6.62133 14.5747C5.52668 14.5747 4.43203 14.5617 3.33793 14.581C2.87863 14.5888 2.52153 14.9936 2.51375 15.439C2.50542 15.8845 2.84753 16.3143 3.30405 16.3237C4.49423 16.3482 5.68496 16.332 6.84681 16.332C6.77461 15.7489 6.70241 15.172 6.62855 14.5778V14.5773Z" fill="white"/>
<path d="M10.7371 14.6219H11.5168L10.3145 12.1338H11.5735L12.842 14.9218L14.1105 12.1338H15.3695L14.1671 14.6219H14.9469V15.3365H13.8194L13.434 16.1304H14.9463V16.8184H13.434V17.8329H12.2505V16.8184H10.7382V16.1304H12.2505L11.8651 15.3365H10.7377L10.7371 14.6219Z" fill="white"/>
</svg>
