<svg width="20" height="21" viewBox="0 0 20 21" fill="none" xmlns="http://www.w3.org/2000/svg">
<path d="M6.82429 11.6078C4.53334 11.614 2.66986 9.78341 2.65632 7.51196C2.64279 5.24308 4.51251 3.38106 6.80763 3.37745C9.10587 3.37384 10.9751 5.22091 10.9756 7.49546C10.9761 9.76227 9.11992 11.6016 6.82429 11.6078ZM6.81335 5.02805C5.43462 5.0296 4.32299 6.12898 4.32195 7.49236C4.32091 8.84956 5.43774 9.96131 6.80867 9.96802C8.1822 9.97421 9.31309 8.85266 9.31049 7.48772C9.30736 6.12794 8.19001 5.02702 6.81335 5.02857V5.02805Z" fill="#C0C8DE"/>
<path d="M6.81072 12.6079C8.05199 12.6321 9.23652 12.8709 10.3351 13.4546C11.2322 13.9311 11.9607 14.5798 12.3788 15.5224C12.5449 15.8968 12.6282 16.2912 12.6302 16.7022C12.6329 17.1849 12.296 17.5505 11.8269 17.569C11.3765 17.5871 10.9995 17.24 10.9787 16.7682C10.9526 16.1793 10.6632 15.7328 10.2284 15.3636C9.6114 14.8397 8.8809 14.5504 8.09261 14.4014C6.71543 14.1415 5.37471 14.2482 4.11625 14.8959C3.78198 15.0676 3.47634 15.312 3.19779 15.5662C2.84737 15.8854 2.66931 16.3021 2.64952 16.7837C2.63078 17.2405 2.25121 17.584 1.80656 17.5695C1.34524 17.5541 0.995871 17.1931 1.00004 16.7254C1.00941 15.6461 1.51654 14.8056 2.31421 14.1208C3.25454 13.3128 4.37658 12.9013 5.59131 12.7214C5.99431 12.6615 6.40407 12.6445 6.81072 12.6084V12.6079Z" fill="#C0C8DE"/>
<path d="M14.1299 10.9655C14.2752 10.8154 14.3986 10.6844 14.5267 10.5576C15.302 9.78874 16.0741 9.01681 16.8551 8.25416C17.3211 7.79935 18.0641 7.9788 18.2458 8.58469C18.3333 8.87604 18.2833 9.15552 18.0657 9.37313C16.9457 10.4916 15.8226 11.6064 14.6923 12.7146C14.3793 13.0214 13.8977 13.0281 13.5806 12.7264C12.9912 12.1654 12.4117 11.593 11.8458 11.0088C11.5354 10.6891 11.5714 10.1806 11.8879 9.87744C12.2045 9.57423 12.6986 9.56701 13.0334 9.87022C13.2198 10.0394 13.3948 10.2214 13.5728 10.3998C13.7509 10.5777 13.9264 10.7582 14.1305 10.966L14.1299 10.9655Z" fill="#C0C8DE"/>
</svg>
