<svg width="20" height="21" viewBox="0 0 20 21" fill="none" xmlns="http://www.w3.org/2000/svg">
<path fill-rule="evenodd" clip-rule="evenodd" d="M10.8523 9.2844L11.2895 10.589L11.578 11.4729C12.3329 13.817 12.7 15.2404 12.7 15.8735C12.7 17.3647 11.4912 18.5735 10 18.5735C8.50883 18.5735 7.3 17.3647 7.3 15.8735C7.3 15.1644 7.76048 13.4641 8.7105 10.589L9.14771 9.2844C9.42402 8.46991 10.576 8.46991 10.8523 9.2844ZM10 2.37354C14.9706 2.37354 19 6.40297 19 11.3735C19 13.1787 18.4666 14.9067 17.4831 16.3754C17.2065 16.7884 16.6475 16.899 16.2345 16.6224C15.8215 16.3459 15.7109 15.7869 15.9874 15.3739C16.774 14.1992 17.2 12.8193 17.2 11.3735C17.2 7.39708 13.9764 4.17353 10 4.17353C6.02355 4.17353 2.8 7.39708 2.8 11.3735C2.8 12.8193 3.22601 14.1992 4.01255 15.3739C4.28911 15.7869 4.17849 16.3459 3.76548 16.6224C3.35246 16.899 2.79346 16.7884 2.5169 16.3754C1.53345 14.9067 1 13.1787 1 11.3735C1 6.40297 5.02944 2.37354 10 2.37354ZM10 12.4526L9.7044 13.4072L9.50007 14.1011C9.2349 15.0284 9.1 15.629 9.1 15.8735C9.1 16.3706 9.50294 16.7735 10 16.7735C10.4971 16.7735 10.9 16.3706 10.9 15.8735C10.9 15.5746 10.6983 14.7432 10.3034 13.4331L10 12.4526Z" fill="white"/>
</svg>
