<svg width="20" height="21" viewBox="0 0 20 21" fill="none" xmlns="http://www.w3.org/2000/svg">
<path d="M11.8993 11.4716L8.26733 8.6283C7.718 8.1983 6.94933 8.19763 6.4 8.6283L2.76733 11.471C2.28 11.853 2 12.4276 2 13.0463V18.9736H12.6667V13.0463C12.6667 12.427 12.3867 11.853 11.8993 11.4716ZM11.3333 17.6403H3.33333V13.0463C3.33333 12.8396 3.42667 12.6483 3.58933 12.521L7.22133 9.67897C7.28667 9.62697 7.37867 9.62763 7.44533 9.67897L11.0773 12.5223C11.24 12.649 11.3333 12.841 11.3333 13.047V17.6403ZM6 12.9736H8.66667V15.6403H6V12.9736ZM14 11.6403H15.3333V12.9736H14V11.6403ZM14 14.307H15.3333V15.6403H14V14.307ZM11.3333 6.30697H12.6667V7.6403H11.3333V6.30697ZM15.3333 7.6403H14V6.30697H15.3333V7.6403ZM11.3333 8.97363H12.6667V10.307H11.3333V8.97363ZM14 8.97363H15.3333V10.307H14V8.97363ZM18 4.97363V18.9736H14V17.6403H16.6667V4.97363C16.6667 4.60563 16.368 4.30697 16 4.30697H10.6667C10.2987 4.30697 10 4.60563 10 4.97363V8.2923L8.66667 7.24897V4.97363C8.66667 4.9623 8.66667 4.9503 8.66733 4.93897C8.686 3.8523 9.57533 2.97363 10.6667 2.97363H16C17.1027 2.97363 18 3.87097 18 4.97363Z" fill="white"/>
</svg>
