<svg width="20" height="14" viewBox="0 0 20 14" fill="none" xmlns="http://www.w3.org/2000/svg">
<path d="M18.6698 5.06667C17.4767 3.17453 14.7629 0 9.99981 0C5.23673 0 2.52289 3.17453 1.32981 5.06667C0.960989 5.64757 0.765625 6.31704 0.765625 7C0.765625 7.68297 0.960989 8.35243 1.32981 8.93333C2.52289 10.8255 5.23673 14 9.99981 14C14.7629 14 17.4767 10.8255 18.6698 8.93333C19.0386 8.35243 19.234 7.68297 19.234 7C19.234 6.31704 19.0386 5.64757 18.6698 5.06667ZM17.3583 8.14907C16.3336 9.77154 14.0144 12.5019 9.99981 12.5019C5.98519 12.5019 3.66597 9.77154 2.64135 8.14907C2.42222 7.80378 2.30616 7.4059 2.30616 7C2.30616 6.5941 2.42222 6.19622 2.64135 5.85094C3.66597 4.22846 5.98519 1.49813 9.99981 1.49813C14.0144 1.49813 16.3336 4.22547 17.3583 5.85094C17.5774 6.19622 17.6935 6.5941 17.6935 7C17.6935 7.4059 17.5774 7.80378 17.3583 8.14907Z" fill="#30313D"/>
<path d="M10.0063 3.25684C9.24561 3.25684 8.502 3.47649 7.8695 3.88804C7.23701 4.29958 6.74403 4.88452 6.45293 5.56888C6.16182 6.25325 6.08566 7.00631 6.23406 7.73283C6.38247 8.45935 6.74878 9.1267 7.28667 9.65049C7.82456 10.1743 8.50988 10.531 9.25596 10.6755C10.002 10.82 10.7754 10.7459 11.4782 10.4624C12.181 10.1789 12.7816 9.69886 13.2043 9.08294C13.6269 8.46703 13.8525 7.74291 13.8525 7.00215C13.8512 6.0092 13.4456 5.05725 12.7246 4.35513C12.0036 3.653 11.026 3.25803 10.0063 3.25684ZM10.0063 9.24935C9.54989 9.24935 9.10372 9.11755 8.72422 8.87063C8.34473 8.6237 8.04894 8.27274 7.87428 7.86212C7.69962 7.4515 7.65392 6.99966 7.74296 6.56375C7.832 6.12784 8.05179 5.72743 8.37452 5.41315C8.69726 5.09887 9.10845 4.88485 9.5561 4.79814C10.0037 4.71143 10.4677 4.75594 10.8894 4.92602C11.3111 5.0961 11.6715 5.38413 11.9251 5.75368C12.1787 6.12323 12.314 6.5577 12.314 7.00215C12.314 7.59815 12.0709 8.16973 11.6381 8.59116C11.2053 9.01259 10.6183 9.24935 10.0063 9.24935Z" fill="#30313D"/>
</svg>
