<svg width="12" height="14" viewBox="0 0 12 14" fill="none" xmlns="http://www.w3.org/2000/svg">
<path d="M11.5739 1.344C11.4116 0.945778 11.1369 0.609778 10.8124 0.360889C10.4753 0.124444 10.0883 0 9.67629 0H2.0859C1.68641 0 1.28691 0.124444 0.949839 0.360889C0.612766 0.597333 0.350598 0.933333 0.175819 1.344C0.0135246 1.74222 -0.0364123 2.19022 0.0260087 2.61333C0.0884297 3.04889 0.263209 3.44711 0.525377 3.78311L4.27064 8.38756V11.6604C4.27064 11.7476 4.2956 11.8347 4.33306 11.9218C4.37051 12.0089 4.42045 12.0711 4.49535 12.1333L6.63015 13.888C6.71754 13.9627 6.8299 14 6.95474 14C7.09207 14 7.22939 13.9378 7.32927 13.8258C7.42914 13.7138 7.49156 13.5644 7.49156 13.4151V10.9387H6.41792V12.2453L5.34428 11.3742V8.16356C5.34428 8.01422 5.29434 7.87733 5.20695 7.76533L1.32437 3.01156C1.19952 2.84978 1.11213 2.65067 1.08717 2.43911C1.0622 2.22756 1.08717 2.016 1.16207 1.81689C1.23698 1.61778 1.3743 1.456 1.5366 1.344C1.69889 1.232 1.88615 1.16978 2.0859 1.16978H9.67629C9.87604 1.16978 10.0633 1.232 10.2256 1.344C10.3879 1.456 10.5252 1.63022 10.6001 1.81689C10.675 2.016 10.7125 2.22756 10.675 2.43911C10.6376 2.65067 10.5627 2.84978 10.4378 3.01156L6.56773 7.76533C6.46786 7.88978 6.41792 8.03911 6.41792 8.18845V8.848H7.49156V8.38756L11.2368 3.78311C11.499 3.45956 11.6738 3.04889 11.7362 2.61333C11.7986 2.17778 11.7362 1.74222 11.5739 1.33156V1.344Z" fill="white"/>
<path d="M9.50798 9.5535V7.83984H9.04979L8.41343 8.58651V9.5535H6.7207V10.5817H8.41343V12.3198H9.50798V10.5817H11.2007V9.5535H9.50798Z" fill="white"/>
</svg>
