<svg width="18" height="18" viewBox="0 0 18 18" fill="none" xmlns="http://www.w3.org/2000/svg">
<path fill-rule="evenodd" clip-rule="evenodd" d="M12.4347 3.27125C12.9565 1.70587 11.7914 0.0893555 10.1413 0.0893555C9.36065 0.0893555 8.62789 0.466389 8.17416 1.10168L4.20728 6.65527H0.937988L0 7.59326V16.9731L0.937988 17.9111H14.6497L17.5307 12.1491C18.3862 10.4381 18.0508 8.37167 16.6982 7.01896C15.8647 6.18552 14.7343 5.71728 13.5556 5.71728H11.6193L12.4347 3.27125ZM5.62797 7.89392L9.7007 2.19208C9.80238 2.04979 9.96646 1.96533 10.1413 1.96533C10.5109 1.96533 10.7719 2.32741 10.6549 2.678L9.01659 7.59326H13.5556C14.2368 7.59326 14.89 7.8639 15.3717 8.34553C16.1534 9.12718 16.3472 10.3214 15.8528 11.3102L13.4903 16.0352H5.62797V7.89392ZM3.75199 16.0352H1.87598V8.53125H3.75199V16.0352Z" fill="white"/>
</svg>
