<svg width="24" height="25" viewBox="0 0 24 25" fill="none" xmlns="http://www.w3.org/2000/svg">
<path d="M12 0.674805C12.568 0.674805 13.0286 1.13532 13.0286 1.70338C13.0286 2.27144 12.568 2.73195 12 2.73195C6.50872 2.73195 2.05714 7.18352 2.05714 12.6748C2.05714 18.1661 6.50872 22.6177 12 22.6177C12.568 22.6177 13.0286 23.0782 13.0286 23.6462C13.0286 24.2143 12.568 24.6748 12 24.6748C5.37259 24.6748 0 19.3022 0 12.6748C0 6.04739 5.37259 0.674805 12 0.674805Z" fill="white"/>
<path d="M18.1298 9.2881C17.7281 8.88643 17.7281 8.23516 18.1298 7.83348C18.5315 7.43181 19.1827 7.43181 19.5844 7.83348L23.6986 11.9478C24.1003 12.3495 24.1003 13.0007 23.6986 13.4023L19.5844 17.5166C19.1827 17.9183 18.5315 17.9183 18.1298 17.5166C17.7281 17.1149 17.7281 16.4638 18.1298 16.0621L20.4881 13.7037H9.25709C8.68903 13.7037 8.22852 13.2431 8.22852 12.6751C8.22852 12.107 8.68903 11.6465 9.25709 11.6465H20.4881L18.1298 9.2881Z" fill="white"/>
</svg>
