<svg width="19" height="18" viewBox="0 0 19 18" fill="none" xmlns="http://www.w3.org/2000/svg">
<path d="M2.74972 8.01086C3.298 4.32111 6.76286 1.77013 10.4887 2.3131C11.7599 2.49833 12.9524 3.03548 13.9288 3.86266L13.0498 4.73308C12.7552 5.0249 12.7553 5.49799 13.05 5.78973C13.1914 5.92975 13.3832 6.00845 13.5832 6.00848H17.0432C17.4599 6.00848 17.7977 5.67398 17.7977 5.26134V1.83486C17.7976 1.42222 17.4597 1.08778 17.0431 1.08785C16.8431 1.08789 16.6513 1.16658 16.5098 1.3066L15.529 2.2779C11.7887 -1.0239 6.0537 -0.697834 2.71959 3.0062C1.53841 4.31841 0.771889 5.94495 0.514992 7.68434C0.413704 8.30099 0.836361 8.88219 1.45901 8.9825C1.5151 8.99154 1.57176 8.9964 1.62859 8.9971C2.19826 8.99101 2.67645 8.57035 2.74972 8.01086Z" fill="white"/>
<path d="M17.3702 9.00195C16.8005 9.00805 16.3224 9.42871 16.2491 9.9882C15.7008 13.6779 12.2359 16.2289 8.51009 15.686C7.2389 15.5008 6.04643 14.9636 5.07005 14.1364L5.949 13.266C6.2436 12.9742 6.24353 12.5011 5.94882 12.2094C5.80739 12.0693 5.61557 11.9906 5.41558 11.9906H1.95563C1.53895 11.9906 1.20117 12.3251 1.20117 12.7378V16.1642C1.20128 16.5769 1.53913 16.9113 1.95581 16.9112C2.1558 16.9112 2.34763 16.8325 2.48905 16.6925L3.46985 15.7212C7.20926 19.0233 12.9438 18.6983 16.2783 14.9951C17.4601 13.6826 18.227 12.0555 18.4838 10.3155C18.5855 9.69891 18.1633 9.11742 17.5407 9.0167C17.4843 9.00756 17.4273 9.00262 17.3702 9.00195Z" fill="white"/>
</svg>
