<svg width="18" height="18" viewBox="0 0 18 18" fill="none" xmlns="http://www.w3.org/2000/svg">
<path fill-rule="evenodd" clip-rule="evenodd" d="M11.5123 18H8.11625C6.57766 18 5.35898 18 4.40522 17.8718C3.42366 17.7398 2.62919 17.4618 2.00265 16.8352C1.37612 16.2087 1.09806 15.4142 0.966101 14.4327C0.837866 13.4789 0.837874 12.2602 0.837891 10.7217V5.65116C0.837891 4.08374 1.98658 2.78456 3.48809 2.54955C3.6036 1.90993 3.82466 1.36398 4.26907 0.919508C4.773 0.415592 5.4075 0.198839 6.16108 0.0975361C6.88691 1.90735e-06 7.80975 0 8.95472 0H11.5583C12.7032 0 13.6261 1.90735e-06 14.352 0.0975361C15.1055 0.198839 15.74 0.415592 16.244 0.919508C16.7479 1.42351 16.9646 2.05794 17.0659 2.81152C17.1635 3.53738 17.1635 4.46023 17.1635 5.6052V9.88317C17.1635 11.0281 17.1635 11.951 17.0659 12.6768C16.9646 13.4304 16.7479 14.0649 16.244 14.5688C15.7995 15.0132 15.2535 15.2343 14.6139 15.3498C14.3789 16.8513 13.0797 18 11.5123 18ZM13.295 15.4706C13.0415 16.2115 12.3391 16.7442 11.5123 16.7442H8.16347C6.56706 16.7442 5.43292 16.7429 4.57256 16.6272C3.73025 16.5139 3.24496 16.3016 2.89064 15.9472C2.53633 15.5929 2.32395 15.1076 2.21071 14.2653C2.09504 13.405 2.09371 12.2708 2.09371 10.6744V5.65116C2.09371 4.82434 2.62637 4.122 3.36724 3.86849C3.3495 4.37911 3.34951 4.95653 3.34952 5.6052V9.88317C3.3495 11.0281 3.34949 11.951 3.44707 12.6768C3.54839 13.4304 3.76514 14.0649 4.26907 14.5688C4.773 15.0728 5.4075 15.2895 6.16108 15.3908C6.88691 15.4884 7.80975 15.4884 8.95472 15.4884H11.5583C12.2069 15.4884 12.7844 15.4884 13.295 15.4706ZM5.15706 13.6808C5.38877 13.9125 5.71409 14.0636 6.32841 14.1462C6.9608 14.2312 7.79895 14.2326 9.00068 14.2326H11.5123C12.714 14.2326 13.5522 14.2312 14.1846 14.1462C14.7989 14.0636 15.1242 13.9125 15.3559 13.6808C15.5877 13.4491 15.7387 13.1238 15.8213 12.5095C15.9063 11.8771 15.9077 11.039 15.9077 9.83721V5.65116C15.9077 4.44943 15.9063 3.6113 15.8213 2.97887C15.7387 2.36453 15.5877 2.03928 15.3559 1.80754C15.1242 1.5758 14.7989 1.42476 14.1846 1.34213C13.5522 1.25715 12.714 1.25581 11.5123 1.25581H9.00068C7.79895 1.25581 6.9608 1.25715 6.32841 1.34213C5.71409 1.42476 5.38877 1.5758 5.15706 1.80754C4.92536 2.03928 4.77428 2.36453 4.69169 2.97887C4.60666 3.6113 4.60533 4.44943 4.60533 5.65116V9.83721C4.60533 11.039 4.60666 11.8771 4.69169 12.5095C4.77428 13.1238 4.92536 13.4491 5.15706 13.6808Z" fill="white"/>
</svg>
