<svg width="27" height="26" viewBox="0 0 27 26" fill="none" xmlns="http://www.w3.org/2000/svg">
<path d="M13.6444 13.9362C13.5604 13.9242 13.4524 13.9242 13.3564 13.9362C11.2444 13.8642 9.56445 12.1362 9.56445 10.0122C9.56445 7.84016 11.3164 6.07617 13.5004 6.07617C15.6724 6.07617 17.4364 7.84016 17.4364 10.0122C17.4244 12.1362 15.7564 13.8642 13.6444 13.9362Z" stroke="#30313D" stroke-width="2" stroke-linecap="round" stroke-linejoin="round"/>
<path d="M21.5881 21.856C19.4521 23.812 16.6201 25 13.5001 25C10.3801 25 7.5481 23.812 5.41211 21.856C5.53211 20.7281 6.2521 19.6241 7.5361 18.7601C10.8241 16.5761 16.2001 16.5761 19.4641 18.7601C20.7481 19.6241 21.4681 20.7281 21.5881 21.856Z" stroke="#30313D" stroke-width="2" stroke-linecap="round" stroke-linejoin="round"/>
<path d="M13.4999 24.9999C20.1273 24.9999 25.4999 19.6273 25.4999 12.9999C25.4999 6.37255 20.1273 1 13.4999 1C6.87255 1 1.5 6.37255 1.5 12.9999C1.5 19.6273 6.87255 24.9999 13.4999 24.9999Z" stroke="#30313D" stroke-width="2" stroke-linecap="round" stroke-linejoin="round"/>
</svg>
