<svg width="17" height="18" viewBox="0 0 17 18" fill="none" xmlns="http://www.w3.org/2000/svg">
<path d="M13.6436 18H3.35787C2.60768 18 1.88822 17.702 1.35777 17.1715C0.827305 16.6411 0.529297 15.9216 0.529297 15.1714V2.82857C0.529297 2.07838 0.827305 1.35893 1.35777 0.828473C1.88822 0.298008 2.60768 0 3.35787 0H11.0722C11.2766 0.000185143 11.4728 0.081576 11.6173 0.226286L16.2459 4.88571C16.3906 5.03025 16.4719 5.22633 16.4722 5.43086V15.1714C16.4722 15.9216 16.1742 16.6411 15.6436 17.1715C15.1132 17.702 14.3937 18 13.6436 18ZM3.35787 1.54286C3.01688 1.54286 2.68985 1.67832 2.44873 1.91944C2.20762 2.16056 2.07215 2.48758 2.07215 2.82857V15.1714C2.07215 15.5124 2.20762 15.8395 2.44873 16.0806C2.68985 16.3217 3.01688 16.4571 3.35787 16.4571H13.6436C13.9846 16.4571 14.3116 16.3217 14.5527 16.0806C14.7938 15.8395 14.9293 15.5124 14.9293 15.1714V5.71886L10.7533 1.54286H3.35787Z" fill="white"/>
<path d="M13.3886 17.2283H11.8458V10.7997H5.16004V17.2283H3.61719V10.5426C3.61719 10.2016 3.75265 9.87449 3.99377 9.6334C4.23489 9.3923 4.56191 9.25684 4.9029 9.25684H12.1029C12.4439 9.25684 12.771 9.3923 13.0121 9.6334C13.2532 9.87449 13.3886 10.2016 13.3886 10.5426V17.2283Z" fill="white"/>
<path d="M8.98636 5.65525H4.9338C4.75955 5.6539 4.58727 5.61825 4.42681 5.55032C4.26634 5.48239 4.12083 5.38352 3.99857 5.25936C3.87631 5.13519 3.77971 4.98815 3.71428 4.82666C3.64885 4.66515 3.61587 4.49235 3.61723 4.3181V0.769531H5.16008V4.11239H8.76007V0.769531H10.3029V4.3181C10.3043 4.49235 10.2714 4.66515 10.2059 4.82666C10.1404 4.98815 10.0438 5.13519 9.92164 5.25936C9.79934 5.38352 9.6538 5.48239 9.49334 5.55032C9.33289 5.61825 9.1606 5.6539 8.98636 5.65525Z" fill="white"/>
</svg>
