<svg width="16" height="14" viewBox="0 0 16 14" fill="none" xmlns="http://www.w3.org/2000/svg">
<path d="M1 3.85714H10.4286M10.4286 3.85714C10.4286 5.15896 11.4839 6.21429 12.7857 6.21429C14.0876 6.21429 15.1429 5.15895 15.1429 3.85714C15.1429 2.55533 14.0876 1.5 12.7857 1.5C11.4839 1.5 10.4286 2.55533 10.4286 3.85714ZM5.71429 10.1429H15.1429M5.71429 10.1429C5.71429 11.4447 4.65895 12.5 3.35714 12.5C2.05533 12.5 1 11.4447 1 10.1429C1 8.84101 2.05533 7.78571 3.35714 7.78571C4.65895 7.78571 5.71429 8.84101 5.71429 10.1429Z" stroke="white" stroke-width="1.57143" stroke-linecap="round" stroke-linejoin="round"/>
</svg>
