<svg width="14" height="14" viewBox="0 0 14 14" fill="none" xmlns="http://www.w3.org/2000/svg">
<g clip-path="url(#clip0_180_35622)">
<path d="M13.3884 7.61373C13.4075 7.41196 13.4173 7.20744 13.4173 7.00065C13.4173 3.45683 10.5445 0.583984 7.00065 0.583984C3.45683 0.583984 0.583984 3.45683 0.583984 7.00065C0.583984 10.5445 3.45683 13.4173 7.00065 13.4173C7.20744 13.4173 7.41196 13.4075 7.61373 13.3884C7.28304 13.0579 7.00882 12.6709 6.80669 12.2431C3.99927 12.1411 1.75464 9.83303 1.75464 7.00065C1.75464 4.10336 4.10336 1.75464 7.00065 1.75464C9.83303 1.75464 12.1411 3.99927 12.2431 6.80669C12.6709 7.00882 13.0579 7.28304 13.3884 7.61373Z" fill="#30313D"/>
<path d="M8.0742 7.21482L7.58268 6.93103V3.50033C7.58268 3.17816 7.32152 2.91699 6.99935 2.91699C6.67717 2.91699 6.41602 3.17816 6.41602 3.50033V7.27257C6.41602 7.27257 6.41602 7.42464 6.48992 7.53903C6.53939 7.63604 6.61651 7.72033 6.71783 7.77884L7.21903 8.06823C7.4603 7.74332 7.74876 7.45544 8.0742 7.21482Z" fill="#30313D"/>
<path fill-rule="evenodd" clip-rule="evenodd" d="M14 10.501C14 12.434 12.433 14.001 10.5 14.001C8.56701 14.001 7 12.434 7 10.501C7 8.56798 8.56701 7.00098 10.5 7.00098C12.433 7.00098 14 8.56798 14 10.501ZM8.15611 10.501C8.15611 11.7955 9.20552 12.8449 10.5 12.8449C11.7945 12.8449 12.8439 11.7955 12.8439 10.501C12.8439 9.2065 11.7945 8.15708 10.5 8.15708C9.20552 8.15708 8.15611 9.2065 8.15611 10.501Z" fill="#30313D"/>
<path d="M11.9025 9.09746C11.8401 9.03506 11.7555 9 11.6672 9C11.5789 9 11.4943 9.03506 11.4318 9.09746L10.5021 10.0272L9.57233 9.09746C9.50955 9.03683 9.42546 9.00327 9.33818 9.00403C9.25089 9.00479 9.1674 9.0398 9.10568 9.10152C9.04396 9.16324 9.00895 9.24673 9.00819 9.33401C9.00744 9.4213 9.04099 9.50538 9.10163 9.56817L10.0314 10.4979L9.10163 11.4277C9.06983 11.4584 9.04447 11.4951 9.02703 11.5357C9.00958 11.5763 9.0004 11.62 9.00001 11.6642C8.99963 11.7084 9.00805 11.7523 9.02479 11.7932C9.04153 11.8341 9.06624 11.8712 9.0975 11.9025C9.12876 11.9338 9.16592 11.9585 9.20683 11.9752C9.24774 11.9919 9.29158 12.0004 9.33578 12C9.37998 11.9996 9.42366 11.9904 9.46427 11.973C9.50489 11.9555 9.54162 11.9302 9.57233 11.8984L10.5021 10.9686L11.4318 11.8984C11.4946 11.959 11.5787 11.9926 11.666 11.9918C11.7533 11.991 11.8368 11.956 11.8985 11.8943C11.9602 11.8326 11.9952 11.7491 11.996 11.6618C11.9967 11.5745 11.9632 11.4905 11.9025 11.4277L10.9728 10.4979L11.9025 9.56817C11.9649 9.50574 12 9.42108 12 9.33282C12 9.24455 11.9649 9.15989 11.9025 9.09746Z" fill="#30313D"/>
</g>
<defs>
<clipPath id="clip0_180_35622">
<rect width="14" height="14" fill="white"/>
</clipPath>
</defs>
</svg>
