<svg width="12" height="13" viewBox="0 0 12 13" fill="none" xmlns="http://www.w3.org/2000/svg">
<path fill-rule="evenodd" clip-rule="evenodd" d="M1.202 6.14868C1.202 8.79517 3.35489 10.9485 6.00219 10.9485C7.30545 10.9485 8.50789 10.4253 9.39173 9.53794L7.80227 7.9486H11.4024V11.5485L10.2396 10.3851C9.13432 11.4951 7.63125 12.1484 6.00219 12.1484C2.69306 12.1484 0.00195312 9.45694 0.00195312 6.14868H1.202ZM6.00171 0.148438C9.31085 0.148438 12.002 2.83993 12.002 6.1482H10.8019C10.8019 3.5017 8.64902 1.34839 6.00171 1.34839C4.69846 1.34839 3.49602 1.87157 2.61218 2.75893L4.20164 4.34827H0.601503V0.748415L1.76434 1.91116C2.86959 0.801815 4.37265 0.148438 6.00171 0.148438Z" fill="#2D7F06"/>
</svg>
