<svg width="13" height="13" viewBox="0 0 13 13" fill="none" xmlns="http://www.w3.org/2000/svg">
<path d="M10.1014 5.5993C10.5391 5.15931 10.5372 4.44779 10.0972 4.01014L7.28038 1.20838C6.84039 0.770733 6.12887 0.772634 5.69122 1.21263L2.88946 4.02941C2.45181 4.4694 2.45371 5.18092 2.89371 5.61857C3.3337 6.05622 4.04522 6.05432 4.48287 5.61432L5.37153 4.7209L5.38837 10.9977C5.38997 11.6183 5.89445 12.1201 6.51507 12.1184C6.82538 12.1176 7.10601 11.9911 7.30877 11.7872C7.51159 11.5833 7.63659 11.302 7.63571 10.9918L7.61893 4.7151L8.51219 5.6036C8.95224 6.0412 9.66376 6.0393 10.1014 5.5993Z" fill="#11C924"/>
</svg>
