<svg width="13" height="13" viewBox="0 0 13 13" fill="none" xmlns="http://www.w3.org/2000/svg">
<path d="M3.49674 7.24246C3.13104 7.60817 3.13104 8.20113 3.49674 8.56684L5.83792 10.908C6.20363 11.2737 6.79659 11.2737 7.1623 10.908L9.50348 8.56684C9.86918 8.20113 9.86918 7.60817 9.50348 7.24246C9.13777 6.87676 8.54481 6.87676 8.1791 7.24246L7.43653 7.98504L7.43649 2.75408C7.43653 2.23691 7.01723 1.81762 6.50002 1.81762C6.24142 1.81762 6.00727 1.92242 5.83784 2.09185C5.66836 2.26133 5.56356 2.49547 5.5636 2.75404L5.5636 7.98486L4.82116 7.24242C4.45541 6.87676 3.86245 6.87676 3.49674 7.24246Z" fill="#EC1D42"/>
</svg>
