<svg width="17" height="17" viewBox="0 0 17 17" fill="none" xmlns="http://www.w3.org/2000/svg">
<path d="M1.31934 8.91168C1.31934 8.13527 1.31934 7.74705 1.56054 7.50585C1.80174 7.26465 2.18995 7.26465 2.96636 7.26465C3.74278 7.26465 4.13099 7.26465 4.37219 7.50585C4.61339 7.74705 4.61339 8.13527 4.61339 8.91168V13.8528C4.61339 14.6292 4.61339 15.0174 4.37219 15.2586C4.13099 15.4998 3.74278 15.4998 2.96636 15.4998C2.18995 15.4998 1.80174 15.4998 1.56054 15.2586C1.31934 15.0174 1.31934 14.6292 1.31934 13.8528V8.91168Z" stroke="#30313D" stroke-width="1.2"/>
<path d="M7.08398 5.61675C7.08398 4.84034 7.08398 4.45213 7.32519 4.21093C7.5664 3.96973 7.9546 3.96973 8.73101 3.96973C9.50742 3.96973 9.89563 3.96973 10.1368 4.21093C10.378 4.45213 10.378 4.84034 10.378 5.61675V13.8519C10.378 14.6283 10.378 15.0165 10.1368 15.2577C9.89563 15.4989 9.50742 15.4989 8.73101 15.4989C7.9546 15.4989 7.5664 15.4989 7.32519 15.2577C7.08398 15.0165 7.08398 14.6283 7.08398 13.8519V5.61675Z" stroke="#30313D" stroke-width="1.2"/>
<path d="M12.8447 3.14703C12.8447 2.37061 12.8447 1.98241 13.0859 1.7412C13.3271 1.5 13.7153 1.5 14.4918 1.5C15.2682 1.5 15.6564 1.5 15.8976 1.7412C16.1388 1.98241 16.1388 2.37061 16.1388 3.14703V13.8527C16.1388 14.6291 16.1388 15.0173 15.8976 15.2585C15.6564 15.4997 15.2682 15.4997 14.4918 15.4997C13.7153 15.4997 13.3271 15.4997 13.0859 15.2585C12.8447 15.0173 12.8447 14.6291 12.8447 13.8527V3.14703Z" stroke="#30313D" stroke-width="1.2"/>
</svg>
