<svg width="12" height="13" viewBox="0 0 12 13" fill="none" xmlns="http://www.w3.org/2000/svg">
<path d="M8.15095 4.29244L8.85295 5.00494L5.95645 7.85844C5.76295 8.05194 5.50845 8.14844 5.25295 8.14844C4.99745 8.14844 4.74045 8.05094 4.54495 7.85594L3.15395 6.50794L3.85045 5.78944L5.24695 7.14294L8.15095 4.29244ZM12.002 6.14844C12.002 9.45694 9.31045 12.1484 6.00195 12.1484C2.69345 12.1484 0.00195312 9.45694 0.00195312 6.14844C0.00195312 2.83994 2.69345 0.148438 6.00195 0.148438C9.31045 0.148438 12.002 2.83994 12.002 6.14844ZM11.002 6.14844C11.002 3.39144 8.75895 1.14844 6.00195 1.14844C3.24495 1.14844 1.00195 3.39144 1.00195 6.14844C1.00195 8.90544 3.24495 11.1484 6.00195 11.1484C8.75895 11.1484 11.002 8.90544 11.002 6.14844Z" fill="white"/>
</svg>
