<svg width="16" height="16" viewBox="0 0 16 16" fill="none" xmlns="http://www.w3.org/2000/svg">
<path d="M9.87797 8.49245L6.28821 5.68218C5.74526 5.25718 4.98553 5.25652 4.44259 5.68218L0.852161 8.49179C0.370494 8.86935 0.09375 9.43733 0.09375 10.0488V15.9072H10.6364V10.0488C10.6364 9.43667 10.3596 8.86935 9.87797 8.49245ZM9.31856 14.5894H1.41158V10.0488C1.41158 9.84454 1.50383 9.65543 1.6646 9.52958L5.25437 6.72063C5.31894 6.66923 5.40987 6.66989 5.47577 6.72063L9.06553 9.5309C9.22631 9.65609 9.31856 9.84586 9.31856 10.0495V14.5894ZM4.04724 9.97698H6.6829V12.6126H4.04724V9.97698ZM11.9542 8.65915H13.272V9.97698H11.9542V8.65915ZM11.9542 11.2948H13.272V12.6126H11.9542V11.2948ZM9.31856 3.38784H10.6364V4.70566H9.31856V3.38784ZM13.272 4.70566H11.9542V3.38784H13.272V4.70566ZM9.31856 6.02349H10.6364V7.34132H9.31856V6.02349ZM11.9542 6.02349H13.272V7.34132H11.9542V6.02349ZM15.9077 2.07001V15.9072H11.9542V14.5894H14.5899V2.07001C14.5899 1.70629 14.2947 1.41109 13.931 1.41109H8.65964C8.29592 1.41109 8.00073 1.70629 8.00073 2.07001V5.35008L6.6829 4.31888V2.07001C6.6829 2.0588 6.6829 2.04694 6.68356 2.03574C6.70201 0.961711 7.581 0.0932617 8.65964 0.0932617H13.931C15.0208 0.0932617 15.9077 0.980161 15.9077 2.07001Z" fill="white"/>
</svg>
