<svg width="19" height="19" viewBox="0 0 19 19" fill="none" xmlns="http://www.w3.org/2000/svg">
<path fill-rule="evenodd" clip-rule="evenodd" d="M12.9347 3.77076C13.4565 2.20538 12.2914 0.588867 10.6413 0.588867C9.86065 0.588867 9.12789 0.965901 8.67416 1.60119L4.70728 7.15478H1.43799L0.5 8.09277V17.4727L1.43799 18.4106H15.1497L18.0307 12.6486C18.8862 10.9376 18.5508 8.87118 17.1982 7.51847C16.3647 6.68503 15.2343 6.2168 14.0556 6.2168H12.1193L12.9347 3.77076ZM6.12797 8.39343L10.2007 2.69159C10.3024 2.5493 10.4665 2.46484 10.6413 2.46484C11.0109 2.46484 11.2719 2.82692 11.1549 3.17751L9.51659 8.09277H14.0556C14.7368 8.09277 15.39 8.36341 15.8717 8.84504C16.6534 9.6267 16.8472 10.8209 16.3528 11.8097L13.9903 16.5347H6.12797V8.39343ZM4.25199 16.5347H2.37598V9.03076H4.25199V16.5347Z" fill="white"/>
</svg>
