<svg width="18" height="17" viewBox="0 0 18 17" fill="none" xmlns="http://www.w3.org/2000/svg">
<path d="M3 9.15241H5.25V10.5605H3V9.15241ZM6.75 10.5605H9V9.15241H6.75V10.5605ZM3 13.3766H5.25V11.9685H3V13.3766ZM6.75 13.3766H9V11.9685H6.75V13.3766ZM3 4.92822H5.25V3.52016H3V4.92822ZM6.75 4.92822H9V3.52016H6.75V4.92822ZM3 7.74435H5.25V6.33628H3V7.74435ZM6.75 7.74435H9V6.33628H6.75V7.74435ZM18 5.63225V16.8968H0V2.11209C0 1.55193 0.237053 1.01471 0.65901 0.618618C1.08097 0.222524 1.65326 0 2.25 0L9.75 0C10.3467 0 10.919 0.222524 11.341 0.618618C11.7629 1.01471 12 1.55193 12 2.11209V3.52016H15.75C16.3467 3.52016 16.919 3.74268 17.341 4.13878C17.7629 4.53487 18 5.07209 18 5.63225ZM10.5 2.11209C10.5 1.92537 10.421 1.7463 10.2803 1.61427C10.1397 1.48224 9.94891 1.40806 9.75 1.40806H2.25C2.05109 1.40806 1.86032 1.48224 1.71967 1.61427C1.57902 1.7463 1.5 1.92537 1.5 2.11209V15.4887H10.5V2.11209ZM16.5 5.63225C16.5 5.44553 16.421 5.26646 16.2803 5.13443C16.1397 5.00239 15.9489 4.92822 15.75 4.92822H12V15.4887H16.5V5.63225ZM13.5 10.5605H15V9.15241H13.5V10.5605ZM13.5 13.3766H15V11.9685H13.5V13.3766ZM13.5 7.74435H15V6.33628H13.5V7.74435Z" fill="#2580D3"/>
</svg>
