<svg width="20" height="21" viewBox="0 0 20 21" fill="none" xmlns="http://www.w3.org/2000/svg">
<path d="M18.25 17.9736H4.75C4.15326 17.9736 3.58097 17.7366 3.15901 17.3146C2.73705 16.8927 2.5 16.3204 2.5 15.7236V2.22363C2.5 2.02472 2.42098 1.83396 2.28033 1.6933C2.13968 1.55265 1.94891 1.47363 1.75 1.47363C1.55109 1.47363 1.36032 1.55265 1.21967 1.6933C1.07902 1.83396 1 2.02472 1 2.22363L1 15.7236C1.00119 16.7178 1.39666 17.671 2.09966 18.374C2.80267 19.077 3.7558 19.4724 4.75 19.4736H18.25C18.4489 19.4736 18.6397 19.3946 18.7803 19.254C18.921 19.1133 19 18.9225 19 18.7236C19 18.5247 18.921 18.334 18.7803 18.1933C18.6397 18.0527 18.4489 17.9736 18.25 17.9736Z" fill="#E2E5EE"/>
<path d="M5.50391 16.4736C5.70282 16.4736 5.89358 16.3946 6.03424 16.254C6.17489 16.1133 6.25391 15.9225 6.25391 15.7236V10.4736C6.25391 10.2747 6.17489 10.084 6.03424 9.9433C5.89358 9.80265 5.70282 9.72363 5.50391 9.72363C5.30499 9.72363 5.11423 9.80265 4.97358 9.9433C4.83292 10.084 4.75391 10.2747 4.75391 10.4736V15.7236C4.75391 15.9225 4.83292 16.1133 4.97358 16.254C5.11423 16.3946 5.30499 16.4736 5.50391 16.4736Z" fill="#E2E5EE"/>
<path d="M8.49805 8.97363V15.7236C8.49805 15.9225 8.57706 16.1133 8.71772 16.254C8.85837 16.3946 9.04913 16.4736 9.24805 16.4736C9.44696 16.4736 9.63772 16.3946 9.77838 16.254C9.91903 16.1133 9.99805 15.9225 9.99805 15.7236V8.97363C9.99805 8.77472 9.91903 8.58396 9.77838 8.4433C9.63772 8.30265 9.44696 8.22363 9.24805 8.22363C9.04913 8.22363 8.85837 8.30265 8.71772 8.4433C8.57706 8.58396 8.49805 8.77472 8.49805 8.97363Z" fill="#E2E5EE"/>
<path d="M12.252 11.2236V15.7236C12.252 15.9225 12.331 16.1133 12.4716 16.254C12.6123 16.3946 12.803 16.4736 13.002 16.4736C13.2009 16.4736 13.3916 16.3946 13.5323 16.254C13.6729 16.1133 13.752 15.9225 13.752 15.7236V11.2236C13.752 11.0247 13.6729 10.834 13.5323 10.6933C13.3916 10.5527 13.2009 10.4736 13.002 10.4736C12.803 10.4736 12.6123 10.5527 12.4716 10.6933C12.331 10.834 12.252 11.0247 12.252 11.2236Z" fill="#E2E5EE"/>
<path d="M15.9961 8.22363V15.7236C15.9961 15.9225 16.0751 16.1133 16.2158 16.254C16.3564 16.3946 16.5472 16.4736 16.7461 16.4736C16.945 16.4736 17.1358 16.3946 17.2764 16.254C17.4171 16.1133 17.4961 15.9225 17.4961 15.7236V8.22363C17.4961 8.02472 17.4171 7.83396 17.2764 7.6933C17.1358 7.55265 16.945 7.47363 16.7461 7.47363C16.5472 7.47363 16.3564 7.55265 16.2158 7.6933C16.0751 7.83396 15.9961 8.02472 15.9961 8.22363Z" fill="#E2E5EE"/>
<path d="M5.50375 8.22223C5.70264 8.22219 5.89338 8.14314 6.034 8.00248L8.7235 5.31298C8.86645 5.1768 9.05631 5.10084 9.25375 5.10084C9.45118 5.10084 9.64105 5.1768 9.784 5.31298L11.413 6.94198C11.8349 7.36379 12.4071 7.60075 13.0037 7.60075C13.6004 7.60075 14.1726 7.36379 14.5945 6.94198L18.784 2.75248C18.9206 2.61103 18.9962 2.42158 18.9945 2.22493C18.9928 2.02828 18.9139 1.84017 18.7749 1.70112C18.6358 1.56206 18.4477 1.48318 18.251 1.48147C18.0544 1.47976 17.8649 1.55536 17.7235 1.69198L13.534 5.88073C13.3934 6.02133 13.2026 6.10032 13.0037 6.10032C12.8049 6.10032 12.6141 6.02133 12.4735 5.88073L10.8445 4.25248C10.4226 3.83067 9.85037 3.59371 9.25375 3.59371C8.65713 3.59371 8.08493 3.83067 7.663 4.25248L4.9735 6.94198C4.86864 7.04687 4.79723 7.18049 4.76831 7.32596C4.73938 7.47142 4.75424 7.6222 4.81099 7.75922C4.86774 7.89624 4.96385 8.01337 5.08715 8.09578C5.21046 8.17819 5.35543 8.2222 5.50375 8.22223Z" fill="#E2E5EE"/>
</svg>
