<svg width="25" height="25" viewBox="0 0 25 25" fill="none" xmlns="http://www.w3.org/2000/svg">
<path d="M21.422 12.0706C21.1273 9.87264 19.9801 7.86589 18.2135 6.45822C16.4469 5.05055 14.1935 4.3476 11.9113 4.49223C9.62905 4.63687 7.48928 5.61825 5.92691 7.2369C4.36453 8.85554 3.49679 10.99 3.50006 13.2064C3.49573 14.3927 3.74381 15.5672 4.22879 16.6565C4.71378 17.7457 5.42526 18.7264 6.31882 19.5373C7.00221 20.1505 7.90266 20.4856 8.83389 20.4733H16.1579C17.1417 20.4755 18.0869 20.1025 18.7892 19.4349C19.79 18.4912 20.5493 17.3339 21.0065 16.0552C21.4636 14.7765 21.6059 13.412 21.422 12.0706ZM17.7409 18.3928C17.319 18.7956 16.7502 19.021 16.1579 19.0199H8.83389C8.28594 19.0308 7.75444 18.8382 7.34839 18.4814C6.60398 17.8057 6.01124 16.9886 5.60716 16.081C5.20308 15.1734 4.99633 14.1948 4.9998 13.2064C5.00054 12.1834 5.22384 11.172 5.65514 10.2383C6.08644 9.30457 6.71604 8.46946 7.50287 7.78746C8.86999 6.59271 10.6471 5.93394 12.488 5.93948C12.7821 5.9396 13.0761 5.95561 13.3684 5.98744C14.7748 6.14574 16.1062 6.68693 17.2084 7.54832C18.3106 8.40971 19.1383 9.55606 19.5959 10.8546C20.0535 12.1531 20.1221 13.5507 19.7938 14.8855C19.4654 16.2202 18.7537 17.4375 17.7409 18.3964V18.3928ZM9.3543 16.3203C9.4965 16.4552 9.57757 16.6393 9.57968 16.8321C9.58179 17.025 9.50476 17.2107 9.36555 17.3485C9.22633 17.4863 9.03633 17.5649 8.83734 17.5669C8.63835 17.569 8.44668 17.4943 8.30448 17.3594C7.45335 16.5515 6.86975 15.5162 6.62807 14.3856C6.3864 13.255 6.4976 12.0803 6.9475 11.0111C7.3974 9.94202 8.16562 9.02693 9.15423 8.38253C10.1428 7.73813 11.3071 7.3936 12.4985 7.39286C12.7853 7.39278 13.0717 7.41245 13.3556 7.45172C13.4531 7.46534 13.5469 7.49745 13.6316 7.54621C13.7163 7.59496 13.7902 7.65941 13.8492 7.73587C13.9082 7.81233 13.951 7.8993 13.9753 7.99182C13.9996 8.08434 14.0049 8.18059 13.9908 8.27507C13.9778 8.37006 13.9454 8.4616 13.8955 8.54429C13.8455 8.62699 13.779 8.69916 13.6999 8.75658C13.6207 8.81399 13.5305 8.85549 13.4345 8.87863C13.3386 8.90176 13.2388 8.90607 13.1411 8.8913C12.2027 8.7614 11.2458 8.92208 10.4072 9.35043C9.56854 9.77877 8.89093 10.4529 8.47107 11.2766C8.05121 12.1002 7.91054 13.0314 8.06915 13.9371C8.22776 14.8429 8.67754 15.6769 9.3543 16.3203ZM13.9428 12.8343C14.033 13.1488 14.0132 13.4834 13.8865 13.7858C13.7598 14.0883 13.5334 14.3415 13.2425 14.5061C12.9516 14.6706 12.6126 14.7372 12.2786 14.6953C11.9445 14.6535 11.6342 14.5056 11.396 14.2748C11.1579 14.044 11.0053 13.7432 10.9621 13.4195C10.9189 13.0958 10.9876 12.7673 11.1574 12.4854C11.3272 12.2035 11.5885 11.984 11.9006 11.8613C12.2127 11.7385 12.5579 11.7193 12.8824 11.8068L15.7177 9.05917C15.7869 8.98976 15.8696 8.9344 15.9611 8.89631C16.0526 8.85823 16.151 8.83818 16.2506 8.83734C16.3501 8.8365 16.4489 8.85489 16.541 8.89143C16.6332 8.92797 16.7169 8.98193 16.7873 9.05016C16.8577 9.11839 16.9134 9.19953 16.9511 9.28883C16.9888 9.37814 17.0078 9.47383 17.0069 9.57032C17.0061 9.66681 16.9854 9.76217 16.9461 9.85083C16.9068 9.93949 16.8496 10.0197 16.778 10.0867L13.9428 12.8343Z" fill="#E2E5EE"/>
</svg>
