<svg width="20" height="21" viewBox="0 0 20 21" fill="none" xmlns="http://www.w3.org/2000/svg">
<path d="M13.5004 7.854L10 13.1046" stroke="white" stroke-width="1.75021" stroke-linecap="round" stroke-linejoin="round"/>
<path d="M17.8769 11.3546C17.8751 12.5304 17.6101 13.6909 17.1013 14.7509C16.5925 15.8109 15.8528 16.7435 14.9365 17.4804H5.06535C4.02753 16.6458 3.21829 15.5617 2.71327 14.3294C2.20825 13.0972 2.02395 11.7569 2.1776 10.4341C2.33124 9.11122 2.81782 7.84893 3.59184 6.76521C4.36586 5.68149 5.40205 4.81173 6.60352 4.23726C7.80499 3.66278 9.13252 3.40235 10.462 3.4803C11.7915 3.55826 13.0794 3.97206 14.2055 4.68301C15.3316 5.39397 16.2591 6.37886 16.9011 7.54562C17.5432 8.71237 17.8789 10.0229 17.8769 11.3546Z" stroke="white" stroke-width="1.75021" stroke-linecap="round" stroke-linejoin="round"/>
</svg>
