<svg width="20" height="21" viewBox="0 0 20 21" fill="none" xmlns="http://www.w3.org/2000/svg">
<path d="M18.178 3.56317V6.38458C18.178 6.60147 18.0918 6.80948 17.9385 6.96285C17.7851 7.11622 17.5771 7.20238 17.3602 7.20238H14.4979C14.3794 7.20372 14.2619 7.17927 14.1538 7.13073C14.0456 7.08219 13.9493 7.01071 13.8715 6.92125C13.7937 6.83179 13.7363 6.72649 13.7033 6.61264C13.6702 6.49879 13.6623 6.37912 13.6801 6.26191C13.7186 6.06352 13.8258 5.88506 13.9828 5.75791C14.1399 5.63077 14.3368 5.56309 14.5388 5.56678H15.4793C14.5267 4.506 13.2866 3.7447 11.9096 3.37537C10.5326 3.00604 9.07795 3.04459 7.72243 3.48632C6.36691 3.92806 5.16886 4.75397 4.27384 5.8637C3.37882 6.97344 2.82536 8.31923 2.68071 9.73755C2.66037 9.93998 2.56531 10.1276 2.41409 10.2636C2.26287 10.3997 2.06636 10.4746 1.86292 10.4736C1.74828 10.4741 1.6348 10.4506 1.52985 10.4045C1.42489 10.3584 1.33081 10.2907 1.25369 10.2059C1.17658 10.1211 1.11816 10.021 1.08223 9.91212C1.04629 9.80326 1.03365 9.68806 1.04512 9.57399C1.21687 7.85707 1.87878 6.22577 2.95193 4.8746C4.02508 3.52343 5.46418 2.50939 7.09764 1.95341C8.7311 1.39743 10.49 1.32296 12.1646 1.73888C13.8392 2.1548 15.3589 3.04356 16.5424 4.29919V3.52228C16.5411 3.40374 16.5655 3.28632 16.6141 3.17816C16.6626 3.07001 16.7341 2.9737 16.8235 2.8959C16.913 2.81811 17.0183 2.7607 17.1321 2.72765C17.246 2.6946 17.3657 2.68669 17.4829 2.70448C17.6813 2.74294 17.8597 2.85013 17.9869 3.00719C18.114 3.16425 18.1817 3.36113 18.178 3.56317Z" fill="white"/>
<path d="M1.82241 17.384V14.5626C1.82241 14.3457 1.90857 14.1377 2.06194 13.9844C2.2153 13.831 2.42331 13.7448 2.64021 13.7448H5.5025C5.62105 13.7435 5.73847 13.7679 5.84662 13.8165C5.95478 13.865 6.05109 13.9365 6.12888 14.026C6.20667 14.1154 6.26408 14.2207 6.29714 14.3346C6.33019 14.4484 6.33809 14.5681 6.3203 14.6853C6.28185 14.8837 6.17466 15.0622 6.01759 15.1893C5.86053 15.3165 5.66366 15.3841 5.46161 15.3804H4.52115C5.47368 16.4412 6.71379 17.2025 8.09081 17.5718C9.46782 17.9412 10.9225 17.9026 12.278 17.4609C13.6335 17.0192 14.8316 16.1932 15.7266 15.0835C16.6216 13.9738 17.1751 12.628 17.3197 11.2097C17.34 11.0072 17.4351 10.8197 17.5863 10.6836C17.7375 10.5475 17.9341 10.4726 18.1375 10.4736C18.2521 10.4731 18.3656 10.4966 18.4706 10.5427C18.5755 10.5888 18.6696 10.6565 18.7467 10.7413C18.8238 10.8261 18.8823 10.9262 18.9182 11.0351C18.9541 11.144 18.9668 11.2592 18.9553 11.3732C18.7835 13.0901 18.1216 14.7214 17.0485 16.0726C15.9753 17.4238 14.5362 18.4378 12.9028 18.9938C11.2693 19.5498 9.51041 19.6243 7.8358 19.2083C6.16119 18.7924 4.64152 17.9037 3.45801 16.648V17.4249C3.45935 17.5435 3.4349 17.6609 3.38636 17.7691C3.33782 17.8772 3.26634 17.9735 3.17688 18.0513C3.08742 18.1291 2.98212 18.1865 2.86827 18.2196C2.75442 18.2526 2.63475 18.2605 2.51754 18.2427C2.31915 18.2043 2.14069 18.0971 2.01354 17.94C1.8864 17.783 1.81872 17.5861 1.82241 17.384Z" fill="white"/>
<path d="M10.2865 9.6561C8.85537 9.36987 8.85537 9.12453 8.85537 8.92008C8.85537 8.71563 8.93715 8.67474 9.05982 8.55207C9.28541 8.43079 9.54012 8.37419 9.79584 8.38851C10.271 8.38439 10.738 8.51175 11.1452 8.75652C11.228 8.82407 11.3245 8.87279 11.428 8.89929C11.5315 8.92579 11.6395 8.92944 11.7446 8.90999C11.8496 8.89053 11.9492 8.84844 12.0363 8.78663C12.1235 8.72482 12.1961 8.64478 12.2492 8.55207C12.3193 8.46845 12.371 8.37101 12.4009 8.26609C12.4309 8.16117 12.4384 8.05112 12.4229 7.94311C12.4075 7.8351 12.3695 7.73155 12.3114 7.63921C12.2533 7.54687 12.1764 7.4678 12.0857 7.40715C11.6969 7.16715 11.2672 7.00082 10.8181 6.91647V5.976C10.8181 5.75911 10.7319 5.5511 10.5786 5.39773C10.4252 5.24436 10.2172 5.1582 10.0003 5.1582C9.7834 5.1582 9.57539 5.24436 9.42202 5.39773C9.26865 5.5511 9.18249 5.75911 9.18249 5.976V6.87558C7.95579 7.08003 7.13799 7.89783 7.13799 9.00186C7.13799 10.1059 8.48736 11.0055 9.79584 11.2508C11.1043 11.4961 11.1452 11.7824 11.1452 11.9868C11.1452 12.1913 10.6954 12.5593 10.123 12.5593C9.5209 12.5712 8.93169 12.3843 8.44647 12.0277C8.35561 11.9673 8.25358 11.9257 8.14638 11.9053C8.03918 11.8849 7.92899 11.8862 7.8223 11.9091C7.71561 11.9319 7.61457 11.9759 7.52513 12.0384C7.4357 12.1009 7.35968 12.1807 7.30155 12.2731C7.23708 12.3497 7.18894 12.4388 7.16008 12.5347C7.13123 12.6307 7.12227 12.7315 7.13376 12.8311C7.14524 12.9306 7.17693 13.0267 7.22687 13.1136C7.27682 13.2005 7.34398 13.2762 7.42422 13.3362C7.95038 13.7055 8.55018 13.9565 9.18249 14.0722V14.9718C9.18249 15.1887 9.26865 15.3967 9.42202 15.5501C9.57539 15.7034 9.7834 15.7896 10.0003 15.7896C10.2172 15.7896 10.4252 15.7034 10.5786 15.5501C10.7319 15.3967 10.8181 15.1887 10.8181 14.9718V14.0722C11.2666 14.0061 11.6898 13.8227 12.0448 13.5406C12.3011 13.3525 12.509 13.106 12.6512 12.8216C12.7934 12.5372 12.8658 12.223 12.8626 11.905C12.8626 10.3921 11.4723 9.90144 10.2865 9.6561Z" fill="white"/>
</svg>
