<svg width="25" height="25" viewBox="0 0 25 25" fill="none" xmlns="http://www.w3.org/2000/svg">
<g clip-path="url(#clip0_292_5581)">
<path d="M21.5 17.7236C21.5 18.9641 20.4905 19.9736 19.25 19.9736V20.7236C19.25 21.1376 18.9148 21.4736 18.5 21.4736C18.0852 21.4736 17.75 21.1376 17.75 20.7236V19.9736H17.549C16.7487 19.9736 16.0017 19.5431 15.6005 18.8494C15.3927 18.4909 15.5157 18.0326 15.8735 17.8249C16.2335 17.6164 16.6918 17.7401 16.898 18.0986C17.0323 18.3296 17.2812 18.4736 17.5483 18.4736H19.2493C19.6632 18.4736 19.9993 18.1376 19.9993 17.7236C19.9993 17.4401 19.796 17.2001 19.5162 17.1536L17.2355 16.7734C16.229 16.6061 15.4992 15.7436 15.4992 14.7236C15.4992 13.4831 16.5088 12.4736 17.7493 12.4736V11.7236C17.7493 11.3096 18.0845 10.9736 18.4993 10.9736C18.914 10.9736 19.2493 11.3096 19.2493 11.7236V12.4736H19.4503C20.2505 12.4736 20.9975 12.9041 21.3988 13.5979C21.6065 13.9564 21.4835 14.4146 21.1257 14.6224C20.765 14.8294 20.3075 14.7064 20.1012 14.3486C19.967 14.1176 19.718 13.9736 19.451 13.9736H17.75C17.336 13.9736 17 14.3096 17 14.7236C17 15.0071 17.2032 15.2471 17.483 15.2936L19.7638 15.6739C20.7703 15.8411 21.5 16.7036 21.5 17.7236ZM8.75 10.2236C8.336 10.2236 8 10.5596 8 10.9736V20.7236C8 21.1376 8.336 21.4736 8.75 21.4736C9.164 21.4736 9.5 21.1376 9.5 20.7236V10.9736C9.5 10.5596 9.164 10.2236 8.75 10.2236ZM5 12.4736C4.586 12.4736 4.25 12.8096 4.25 13.2236V20.7236C4.25 21.1376 4.586 21.4736 5 21.4736C5.414 21.4736 5.75 21.1376 5.75 20.7236V13.2236C5.75 12.8096 5.414 12.4736 5 12.4736ZM12.5 7.97363C12.086 7.97363 11.75 8.30963 11.75 8.72363V20.7236C11.75 21.1376 12.086 21.4736 12.5 21.4736C12.914 21.4736 13.25 21.1376 13.25 20.7236V8.72363C13.25 8.30963 12.914 7.97363 12.5 7.97363ZM20 9.47363C20.4147 9.47363 20.75 9.13763 20.75 8.72363V4.22363C20.75 3.80963 20.4147 3.47363 20 3.47363C19.5852 3.47363 19.25 3.80963 19.25 4.22363V8.72363C19.25 9.13763 19.5852 9.47363 20 9.47363ZM16.25 10.2236C16.6648 10.2236 17 9.88763 17 9.47363V6.47363C17 6.05963 16.6648 5.72363 16.25 5.72363C15.8352 5.72363 15.5 6.05963 15.5 6.47363V9.47363C15.5 9.88763 15.8352 10.2236 16.25 10.2236Z" fill="white"/>
</g>
<defs>
<clipPath id="clip0_292_5581">
<rect width="18" height="18" fill="white" transform="translate(3.5 3.47363)"/>
</clipPath>
</defs>
</svg>
