<svg width="23" height="28" viewBox="0 0 23 28" fill="none" xmlns="http://www.w3.org/2000/svg">
<path d="M1.15039 21.5015C1.15039 21.5015 3.65039 21.5015 3.65039 17.7515V10.2515C3.65039 10.2515 3.65039 2.75146 11.1504 2.75146C18.6504 2.75146 18.6504 10.2515 18.6504 10.2515V17.7515C18.6504 21.5015 21.1504 21.5015 21.1504 21.5015H1.15039Z" stroke="#2580D3" stroke-width="2" stroke-linecap="round" stroke-linejoin="round"/>
<path d="M13.3133 25.2515C13.0885 25.6259 12.7752 25.9392 12.4008 26.164C12.0207 26.3834 11.5896 26.4989 11.1508 26.4989C10.7119 26.4989 10.2808 26.3834 9.90078 26.164C9.52639 25.9392 9.21302 25.6259 8.98828 25.2515" stroke="#2580D3" stroke-width="2" stroke-linecap="round" stroke-linejoin="round"/>
<path d="M11.1504 2.75146V1.50146" stroke="#2580D3" stroke-width="2" stroke-linecap="round" stroke-linejoin="round"/>
</svg>
