<svg width="27" height="27" viewBox="0 0 27 27" fill="none" xmlns="http://www.w3.org/2000/svg">
<path d="M9.5 11.0081C9.5 10.217 9.7346 9.44366 10.1741 8.78586C10.6137 8.12806 11.2384 7.61538 11.9693 7.31262C12.7001 7.00987 13.5044 6.93066 14.2804 7.085C15.0563 7.23934 15.7691 7.6203 16.3284 8.17971C16.8879 8.73913 17.2688 9.45186 17.4232 10.2278C17.5775 11.0037 17.4983 11.808 17.1955 12.5389C16.8928 13.2697 16.3801 13.8945 15.7223 14.334C15.0645 14.7736 14.2911 15.0081 13.5 15.0081V16.3415M25.5 13.6748C25.5 20.3023 20.1275 25.6748 13.5 25.6748C6.87259 25.6748 1.5 20.3023 1.5 13.6748C1.5 7.04739 6.87259 1.6748 13.5 1.6748C20.1275 1.6748 25.5 7.04739 25.5 13.6748Z" stroke="#30313D" stroke-width="2" stroke-linecap="round" stroke-linejoin="round"/>
<path d="M14.0326 21.9411C14.7689 21.9411 15.3659 21.3441 15.3659 20.6077C15.3659 19.8714 14.7689 19.2744 14.0326 19.2744C13.2962 19.2744 12.6992 19.8714 12.6992 20.6077C12.6992 21.3441 13.2962 21.9411 14.0326 21.9411Z" fill="#30313D"/>
</svg>
