<svg width="24" height="25" viewBox="0 0 24 25" fill="none" xmlns="http://www.w3.org/2000/svg">
<path d="M12 0.666992C9.62663 0.666992 7.30655 1.37078 5.33316 2.68936C3.35977 4.00793 1.8217 5.88208 0.913451 8.07479C0.00519943 10.2675 -0.232441 12.6803 0.230582 15.0081C0.693605 17.3358 1.83649 19.474 3.51472 21.1523C5.19295 22.8305 7.33115 23.9734 9.65892 24.4364C11.9867 24.8994 14.3995 24.6618 16.5922 23.7535C18.7849 22.8453 20.6591 21.3072 21.9776 19.3338C23.2962 17.3604 24 15.0404 24 12.667C23.9966 9.48545 22.7312 6.4352 20.4815 4.18551C18.2318 1.93582 15.1815 0.670433 12 0.666992ZM12 22.667C10.0222 22.667 8.08879 22.0805 6.4443 20.9817C4.79981 19.8829 3.51809 18.3211 2.76121 16.4938C2.00433 14.6666 1.8063 12.6559 2.19215 10.7161C2.578 8.77628 3.53041 6.99445 4.92894 5.59592C6.32746 4.1974 8.10929 3.24499 10.0491 2.85914C11.9889 2.47329 13.9996 2.67132 15.8268 3.4282C17.6541 4.18507 19.2159 5.4668 20.3147 7.11129C21.4135 8.75578 22 10.6892 22 12.667C21.9971 15.3183 20.9426 17.8601 19.0679 19.7348C17.1931 21.6096 14.6513 22.6641 12 22.667ZM17 12.667C17 12.9322 16.8946 13.1866 16.7071 13.3741C16.5196 13.5616 16.2652 13.667 16 13.667H13V16.667C13 16.9322 12.8946 17.1866 12.7071 17.3741C12.5196 17.5616 12.2652 17.667 12 17.667C11.7348 17.667 11.4804 17.5616 11.2929 17.3741C11.1054 17.1866 11 16.9322 11 16.667V13.667H8C7.73479 13.667 7.48043 13.5616 7.2929 13.3741C7.10536 13.1866 7 12.9322 7 12.667C7 12.4018 7.10536 12.1474 7.2929 11.9599C7.48043 11.7723 7.73479 11.667 8 11.667H11V8.66699C11 8.40177 11.1054 8.14742 11.2929 7.95988C11.4804 7.77235 11.7348 7.66699 12 7.66699C12.2652 7.66699 12.5196 7.77235 12.7071 7.95988C12.8946 8.14742 13 8.40177 13 8.66699V11.667H16C16.2652 11.667 16.5196 11.7723 16.7071 11.9599C16.8946 12.1474 17 12.4018 17 12.667Z" fill="#2580D3"/>
</svg>
