<svg width="17" height="18" viewBox="0 0 17 18" fill="none" xmlns="http://www.w3.org/2000/svg">
<path d="M13.6431 18H3.35738C2.60719 18 1.88774 17.702 1.35728 17.1715C0.826817 16.6411 0.528809 15.9216 0.528809 15.1714V2.82857C0.528809 2.07838 0.826817 1.35893 1.35728 0.828473C1.88774 0.298008 2.60719 0 3.35738 0H11.0717C11.2761 0.000185143 11.4723 0.081576 11.6168 0.226286L16.2454 4.88571C16.3901 5.03025 16.4715 5.22633 16.4717 5.43086V15.1714C16.4717 15.9216 16.1737 16.6411 15.6432 17.1715C15.1127 17.702 14.3932 18 13.6431 18ZM3.35738 1.54286C3.01639 1.54286 2.68936 1.67832 2.44825 1.91944C2.20713 2.16056 2.07167 2.48758 2.07167 2.82857V15.1714C2.07167 15.5124 2.20713 15.8395 2.44825 16.0806C2.68936 16.3217 3.01639 16.4571 3.35738 16.4571H13.6431C13.9841 16.4571 14.3112 16.3217 14.5522 16.0806C14.7933 15.8395 14.9288 15.5124 14.9288 15.1714V5.71886L10.7528 1.54286H3.35738Z" fill="white"/>
<path d="M13.3872 17.2283H11.8443V10.7997H5.15858V17.2283H3.61572V10.5426C3.61572 10.2016 3.75119 9.87449 3.9923 9.6334C4.23342 9.3923 4.56044 9.25684 4.90144 9.25684H12.1014C12.4424 9.25684 12.7695 9.3923 13.0106 9.6334C13.2517 9.87449 13.3872 10.2016 13.3872 10.5426V17.2283Z" fill="white"/>
<path d="M8.9849 5.65525H4.93233C4.75808 5.6539 4.58581 5.61825 4.42534 5.55032C4.26487 5.48239 4.11936 5.38352 3.99711 5.25936C3.87485 5.13519 3.77825 4.98815 3.71282 4.82666C3.64738 4.66515 3.61441 4.49235 3.61576 4.3181V0.769531H5.15862V4.11239H8.75861V0.769531H10.3015V4.3181C10.3028 4.49235 10.2699 4.66515 10.2045 4.82666C10.139 4.98815 10.0424 5.13519 9.92018 5.25936C9.79788 5.38352 9.65234 5.48239 9.49188 5.55032C9.33142 5.61825 9.15914 5.6539 8.9849 5.65525Z" fill="white"/>
</svg>
