<svg width="17" height="13" viewBox="0 0 17 13" fill="none" xmlns="http://www.w3.org/2000/svg">
<path d="M11.334 9.90859L1.89397 9.90859C1.63497 9.90859 1.38658 10.0111 1.20344 10.1936C1.0203 10.376 0.917416 10.6235 0.917416 10.8815C0.917417 11.1396 1.0203 11.3871 1.20344 11.5695C1.38658 11.752 1.63497 11.8545 1.89397 11.8545L11.334 11.8545C11.593 11.8545 11.8414 11.752 12.0245 11.5695C12.2077 11.3871 12.3105 11.1396 12.3105 10.8815C12.3105 10.6235 12.2077 10.376 12.0245 10.1936C11.8414 10.0111 11.593 9.90859 11.334 9.90859Z" fill="#F6F6F6"/>
<path d="M1.89397 7.30762L11.334 7.30762C11.593 7.30762 11.8414 7.20511 12.0245 7.02265C12.2077 6.84018 12.3105 6.59271 12.3105 6.33467C12.3105 6.07662 12.2077 5.82915 12.0245 5.64669C11.8414 5.46422 11.593 5.36172 11.334 5.36172L1.89397 5.36172C1.63497 5.36172 1.38658 5.46422 1.20344 5.64669C1.0203 5.82915 0.917416 6.07662 0.917416 6.33467C0.917417 6.59271 1.0203 6.84018 1.20344 7.02265C1.38658 7.20511 1.63497 7.30762 1.89397 7.30762Z" fill="#F6F6F6"/>
<path d="M1.89397 2.77246L11.334 2.77246C11.593 2.77246 11.8414 2.66995 12.0245 2.48749C12.2077 2.30503 12.3105 2.05755 12.3105 1.79951C12.3105 1.54147 12.2077 1.29399 12.0245 1.11153C11.8414 0.929067 11.593 0.82656 11.334 0.82656L1.89397 0.826561C1.63497 0.826561 1.38658 0.929068 1.20344 1.11153C1.0203 1.294 0.917416 1.54147 0.917416 1.79951C0.917417 2.05755 1.0203 2.30503 1.20344 2.48749C1.38658 2.66995 1.63497 2.77246 1.89397 2.77246Z" fill="#F6F6F6"/>
<path d="M14.9134 9.25586C14.0145 9.25586 13.2858 9.98186 13.2858 10.8774C13.2858 11.773 14.0145 12.499 14.9134 12.499C15.8123 12.499 16.541 11.773 16.541 10.8774C16.541 9.98186 15.8123 9.25586 14.9134 9.25586Z" fill="#F6F6F6"/>
<path d="M14.9134 5.03711C14.0145 5.03711 13.2858 5.76311 13.2858 6.65869C13.2858 7.55427 14.0145 8.28027 14.9134 8.28027C15.8123 8.28027 16.541 7.55427 16.541 6.65869C16.541 5.76311 15.8123 5.03711 14.9134 5.03711Z" fill="#F6F6F6"/>
<path d="M14.9134 0.501949C14.0145 0.501949 13.2858 1.22796 13.2858 2.12353C13.2858 3.01911 14.0145 3.74512 14.9134 3.74512C15.8123 3.74512 16.541 3.01911 16.541 2.12353C16.541 1.22796 15.8123 0.501949 14.9134 0.501949Z" fill="#F6F6F6"/>
</svg>
