<svg width="12" height="13" viewBox="0 0 12 13" fill="none" xmlns="http://www.w3.org/2000/svg">
<g clip-path="url(#clip0_259_19002)">
<path d="M5.50166 6.64844V3.64844C5.50166 3.37344 5.72666 3.14844 6.00166 3.14844C6.27666 3.14844 6.50166 3.37344 6.50166 3.64844V6.64844C6.50166 6.92344 6.27666 7.14844 6.00166 7.14844C5.72666 7.14844 5.50166 6.92344 5.50166 6.64844ZM6.00166 7.64844C5.58666 7.64844 5.25166 7.98344 5.25166 8.39844C5.25166 8.81344 5.58666 9.14844 6.00166 9.14844C6.41666 9.14844 6.75166 8.81344 6.75166 8.39844C6.75166 7.98344 6.41666 7.64844 6.00166 7.64844ZM11.7917 10.0884C11.4417 10.7634 10.7067 11.1484 9.78666 11.1484H2.22166C1.29666 11.1484 0.566661 10.7634 0.216661 10.0884C-0.138339 9.40844 -0.0383389 8.53844 0.466661 7.80844L4.48666 1.44844C4.84166 0.938437 5.40166 0.648438 6.00166 0.648438C6.60166 0.648438 7.16166 0.938437 7.50166 1.43344L11.5417 7.81844C12.0467 8.54844 12.1417 9.41344 11.7867 10.0884H11.7917ZM10.7167 8.37844C10.7167 8.37844 10.7067 8.36844 10.7067 8.35844L6.67166 1.98344C6.52666 1.77844 6.27666 1.64844 6.00166 1.64844C5.72666 1.64844 5.47666 1.77844 5.32166 2.00344L1.29666 8.35844C0.986661 8.79844 0.916661 9.27844 1.09666 9.62344C1.27166 9.96344 1.67166 10.1484 2.21666 10.1484H9.77666C10.3217 10.1484 10.7217 9.96344 10.8967 9.62344C11.0767 9.27844 11.0067 8.79844 10.7117 8.37844H10.7167Z" fill="#30313D"/>
</g>
<defs>
<clipPath id="clip0_259_19002">
<rect width="12" height="12" fill="white" transform="translate(0.00195312 0.148438)"/>
</clipPath>
</defs>
</svg>
