<svg width="28" height="25" viewBox="0 0 28 25" fill="none" xmlns="http://www.w3.org/2000/svg">
<path d="M12.8724 14.2143V7.35714C12.8724 6.72857 13.3789 6.21429 13.998 6.21429C14.6171 6.21429 15.1236 6.72857 15.1236 7.35714V14.2143C15.1236 14.8429 14.6171 15.3571 13.998 15.3571C13.3789 15.3571 12.8724 14.8429 12.8724 14.2143ZM13.998 16.5C13.0638 16.5 12.3096 17.2657 12.3096 18.2143C12.3096 19.1629 13.0638 19.9286 13.998 19.9286C14.9323 19.9286 15.6865 19.1629 15.6865 18.2143C15.6865 17.2657 14.9323 16.5 13.998 16.5ZM27.0327 22.0771C26.2448 23.62 24.5901 24.5 22.519 24.5H5.48831C3.40591 24.5 1.7625 23.62 0.974566 22.0771C0.175374 20.5229 0.400499 18.5343 1.53738 16.8657L10.5874 2.32857C11.3866 1.16286 12.6473 0.5 13.998 0.5C15.3488 0.5 16.6095 1.16286 17.3749 2.29429L26.4699 16.8886C27.6068 18.5571 27.8207 20.5343 27.0215 22.0771H27.0327ZM24.6126 18.1686C24.6126 18.1686 24.5901 18.1457 24.5901 18.1229L15.5064 3.55143C15.1799 3.08286 14.6171 2.78571 13.998 2.78571C13.3789 2.78571 12.8161 3.08286 12.4672 3.59714L3.40591 18.1229C2.70802 19.1286 2.55044 20.2257 2.95566 21.0143C3.34963 21.7914 4.25013 22.2143 5.47706 22.2143H22.4965C23.7234 22.2143 24.6239 21.7914 25.0179 21.0143C25.4231 20.2257 25.2655 19.1286 24.6014 18.1686H24.6126Z" fill="#FFCD29"/>
</svg>
