<svg width="20" height="21" viewBox="0 0 20 21" fill="none" xmlns="http://www.w3.org/2000/svg">
<path fill-rule="evenodd" clip-rule="evenodd" d="M9.99891 7.33398C8.265 7.33398 6.85938 8.7396 6.85938 10.4735C6.85938 12.2075 8.265 13.6131 9.99891 13.6131C11.7329 13.6131 13.1384 12.2075 13.1384 10.4735C13.1384 8.7396 11.7329 7.33398 9.99891 7.33398ZM8.11519 10.4735C8.11519 9.4332 8.95859 8.5898 9.99891 8.5898C11.0392 8.5898 11.8826 9.4332 11.8826 10.4735C11.8826 11.5138 11.0392 12.3572 9.99891 12.3572C8.95859 12.3572 8.11519 11.5138 8.11519 10.4735Z" fill="white"/>
<path fill-rule="evenodd" clip-rule="evenodd" d="M9.97864 1.47363C9.60658 1.47362 9.29589 1.47362 9.04088 1.49102C8.7754 1.50914 8.52466 1.54819 8.28154 1.64889C7.71741 1.88256 7.2692 2.33076 7.03553 2.8949C6.91388 3.18859 6.88094 3.49811 6.86835 3.83453C6.85824 4.10497 6.72176 4.33062 6.52034 4.44691C6.31892 4.5632 6.05527 4.56857 5.816 4.44211C5.51835 4.28479 5.23383 4.15856 4.91865 4.11706C4.31327 4.03736 3.70101 4.20142 3.21657 4.57314C3.00781 4.73333 2.8486 4.93097 2.70018 5.15183C2.5576 5.36399 2.40229 5.63301 2.21623 5.95527L2.19509 5.99189C2.00903 6.31414 1.85371 6.58316 1.74127 6.81271C1.62422 7.05168 1.53265 7.28838 1.4983 7.54927C1.4186 8.15466 1.58266 8.76691 1.95437 9.25139C2.14787 9.50347 2.39941 9.68682 2.68443 9.8659C2.91364 10.0099 3.04084 10.241 3.04082 10.4736C3.04081 10.7062 2.91361 10.9373 2.68443 11.0813C2.39937 11.2604 2.14781 11.4437 1.9543 11.6959C1.58258 12.1803 1.41852 12.7925 1.49822 13.3979C1.53257 13.6588 1.62413 13.8956 1.74119 14.1345C1.85363 14.3641 2.00895 14.6331 2.195 14.9553L2.21615 14.992C2.4022 15.3142 2.55751 15.5832 2.7001 15.7954C2.84852 16.0162 3.00772 16.2139 3.21649 16.374C3.70092 16.7458 4.31318 16.9098 4.91857 16.8301C5.23373 16.7886 5.51824 16.6625 5.81587 16.5051C6.05517 16.3786 6.31885 16.384 6.52029 16.5004C6.72174 16.6167 6.85824 16.8423 6.86835 17.1128C6.88094 17.4492 6.91389 17.7587 7.03553 18.0524C7.2692 18.6165 7.71741 19.0647 8.28154 19.2984C8.52466 19.3991 8.7754 19.4381 9.04088 19.4562C9.29589 19.4736 9.60658 19.4736 9.97864 19.4736H10.0209C10.3931 19.4736 10.7037 19.4736 10.9588 19.4562C11.2242 19.4381 11.475 19.3991 11.7181 19.2984C12.2822 19.0647 12.7305 18.6165 12.9641 18.0524C13.0858 17.7587 13.1187 17.4492 13.1312 17.1127C13.1414 16.8423 13.2778 16.6167 13.4793 16.5003C13.6807 16.384 13.9444 16.3786 14.1837 16.5051C14.4813 16.6624 14.7658 16.7886 15.081 16.8301C15.6864 16.9098 16.2986 16.7458 16.7831 16.374C16.9919 16.2138 17.151 16.0162 17.2994 15.7954C17.442 15.5832 17.5973 15.3142 17.7834 14.992L17.8045 14.9553C17.9906 14.6331 18.146 14.364 18.2584 14.1344C18.3754 13.8955 18.4669 13.6588 18.5013 13.3979C18.581 12.7925 18.417 12.1802 18.0452 11.6958C17.8518 11.4436 17.6002 11.2604 17.3152 11.0813C17.086 10.9373 16.9588 10.7062 16.9588 10.4735C16.9588 10.241 17.086 10.01 17.3151 9.86599C17.6003 9.68691 17.8518 9.50364 18.0453 9.25139C18.417 8.76697 18.5811 8.15472 18.5014 7.54933C18.467 7.28844 18.3755 7.05174 18.2585 6.81277C18.146 6.58323 17.9907 6.31423 17.8046 5.99201L17.7835 5.95537C17.5974 5.6331 17.4421 5.36404 17.2995 5.15189C17.1511 4.93103 16.9919 4.73339 16.7831 4.57319C16.2987 4.20148 15.6865 4.03742 15.081 4.11712C14.7659 4.15861 14.4814 4.28483 14.1838 4.44214C13.9445 4.56862 13.6808 4.56324 13.4793 4.44693C13.2779 4.33063 13.1414 4.10496 13.1312 3.83449C13.1187 3.49807 13.0858 3.18857 12.9641 2.8949C12.7305 2.33076 12.2822 1.88256 11.7181 1.64889C11.475 1.54819 11.2242 1.50914 10.9588 1.49102C10.7037 1.47362 10.3931 1.47362 10.0209 1.47363H9.97864ZM8.76209 2.80911C8.82672 2.78235 8.92484 2.75768 9.12636 2.74392C9.33357 2.72979 9.60114 2.72945 9.99982 2.72945C10.3985 2.72945 10.6661 2.72979 10.8732 2.74392C11.0748 2.75768 11.1729 2.78235 11.2375 2.80911C11.4939 2.91532 11.6977 3.11905 11.8038 3.37548C11.8374 3.45636 11.8651 3.58245 11.8763 3.88142C11.9011 4.54481 12.2435 5.18355 12.8514 5.5345C13.4593 5.88546 14.1837 5.86262 14.7706 5.55242C15.035 5.41262 15.1582 5.37362 15.2449 5.36219C15.5201 5.32597 15.7984 5.40054 16.0186 5.5695C16.0741 5.61206 16.1445 5.6847 16.2572 5.85237C16.3731 6.02473 16.5071 6.25628 16.7065 6.60154C16.9058 6.94681 17.0393 7.1787 17.1307 7.36518C17.2195 7.5466 17.2472 7.64392 17.2563 7.71325C17.2926 7.98842 17.218 8.26672 17.049 8.48692C16.9957 8.55638 16.9004 8.64348 16.647 8.80265C16.085 9.15587 15.7031 9.77172 15.703 10.4735C15.703 11.1755 16.0849 11.7914 16.647 12.1446C16.9003 12.3038 16.9956 12.3908 17.049 12.4603C17.2179 12.6805 17.2925 12.9588 17.2562 13.234C17.2471 13.3033 17.2194 13.4006 17.1306 13.582C17.0392 13.7685 16.9057 14.0004 16.7064 14.3456C16.507 14.6909 16.373 14.9225 16.2571 15.0949C16.1444 15.2625 16.074 15.3351 16.0185 15.3777C15.7983 15.5467 15.52 15.6212 15.2449 15.585C15.1581 15.5736 15.035 15.5346 14.7705 15.3948C14.1836 15.0846 13.4592 15.0618 12.8513 15.4127C12.2435 15.7637 11.9011 16.4024 11.8763 17.0658C11.8651 17.3648 11.8374 17.4909 11.8038 17.5718C11.6977 17.8282 11.4939 18.032 11.2375 18.1382C11.1729 18.1649 11.0748 18.1896 10.8732 18.2033C10.6661 18.2175 10.3985 18.2178 9.99982 18.2178C9.60114 18.2178 9.33357 18.2175 9.12636 18.2033C8.92484 18.1896 8.82672 18.1649 8.76209 18.1382C8.50573 18.032 8.30197 17.8282 8.19575 17.5718C8.16225 17.4909 8.13447 17.3648 8.12329 17.0658C8.09848 16.4025 7.75607 15.7637 7.1482 15.4127C6.54034 15.0618 5.81597 15.0846 5.22905 15.3948C4.96455 15.5346 4.84146 15.5737 4.75466 15.585C4.47948 15.6213 4.20118 15.5467 3.98099 15.3778C3.92551 15.3352 3.85508 15.2626 3.7424 15.0949C3.62657 14.9226 3.49249 14.691 3.29315 14.3457C3.09381 14.0005 2.96032 13.7686 2.86897 13.5821C2.78011 13.4007 2.75242 13.3033 2.74329 13.234C2.70706 12.9588 2.78164 12.6805 2.9506 12.4603C3.0039 12.3909 3.09921 12.3038 3.35255 12.1446C3.91463 11.7915 4.2966 11.1755 4.29663 10.4737C4.29667 9.77172 3.91469 9.15578 3.35255 8.80256C3.09928 8.6434 3.00397 8.55631 2.95068 8.48686C2.78172 8.26667 2.70715 7.98837 2.74337 7.71319C2.7525 7.64387 2.7802 7.54654 2.86906 7.36513C2.9604 7.17864 3.09389 6.94675 3.29323 6.60148C3.49258 6.25622 3.62665 6.02467 3.74248 5.85231C3.85516 5.68465 3.9256 5.612 3.98106 5.56945C4.20127 5.40048 4.47956 5.32591 4.75474 5.36214C4.84155 5.37356 4.96464 5.41256 5.22917 5.55238C5.81606 5.86258 6.5404 5.88541 7.14823 5.53447C7.75608 5.18354 8.09848 4.54483 8.12329 3.88146C8.13447 3.58247 8.16225 3.45637 8.19575 3.37548C8.30197 3.11905 8.50573 2.91532 8.76209 2.80911Z" fill="white"/>
</svg>
