<svg width="209" height="298" viewBox="0 0 209 298" fill="none" xmlns="http://www.w3.org/2000/svg">
<path d="M109.971 129.531V222.921C109.971 224.741 112.811 230.471 114.301 232.141L176.421 293.901C188.011 301.701 202.531 296.701 207.941 284.121L208.231 74.3407C202.371 58.9307 184.261 55.0407 172.371 66.6007L109.981 128.551" fill="#377EC1"/>
<path d="M98.7513 166.381V168.231L37.3213 230.491C24.6413 243.601 1.69133 237.281 0.00132768 218.411V20.9106C-0.178672 4.80063 17.9813 -5.21936 31.6913 2.85064C50.3313 23.0706 74.6413 42.0806 92.6013 62.4306C94.1213 64.1606 98.7513 71.3906 98.7513 73.2206V166.391V166.381Z" fill="#7EB3E1"/>
</svg>
