<?xml version="1.0" encoding="UTF-8"?>
<svg id="Layer_1" xmlns="http://www.w3.org/2000/svg" version="1.1" viewBox="0 0 1000 352.36">
  <!-- Generator: Adobe Illustrator 29.9.0, SVG Export Plug-In . SVG Version: 2.1.1 Build 6)  -->
  <defs>
    <style>
      .st0 {
        fill: #7eb3e1;
      }

      .st1 {
        fill: #272626;
      }

      .st2 {
        fill: #377ec1;
      }
    </style>
  </defs>
  <g>
    <path class="st2" d="M175.57,153.55h0v93.39c0,1.82,2.84,7.55,4.33,9.22l62.12,61.76c11.59,7.8,26.11,2.8,31.52-9.78l.29-209.78c-5.86-15.41-23.97-19.3-35.86-7.74l-62.39,61.95"/>
    <path class="st0" d="M164.35,190.4v1.85l-61.43,62.26c-12.68,13.11-35.63,6.79-37.32-12.08V44.93c-.18-16.11,17.98-26.13,31.69-18.06,18.64,20.22,42.95,39.23,60.91,59.58,1.52,1.73,6.15,8.96,6.15,10.79v93.17h0Z"/>
  </g>
  <g>
    <path class="st1" d="M331.44,266.82V78.84h37.35v46.39h70.8c6.35,0,12.21,1.63,17.58,4.88,5.37,3.26,9.68,7.57,12.94,12.94,3.25,5.37,4.88,11.23,4.88,17.58v106.2h-37.35v-104.25h-59.96c-4.91,0-8.88,3.98-8.88,8.88v95.36h-37.36Z"/>
    <path class="st1" d="M691.13,266.82l-77.88-141.6h42.97l51.02,93.99,51.02-93.99h42.97l-78.12,141.6h-31.98Z"/>
    <path class="st1" d="M533.84,125.22c-6.51,0-12.45,1.63-17.82,4.88-5.37,3.26-9.69,7.57-12.94,12.94-3.26,5.37-4.88,11.23-4.88,17.58v106.2h37.35v-90.7c0-7.48,6.07-13.55,13.55-13.55h53.42l-20.54-37.35h-48.14,0Z"/>
    <path class="st1" d="M829.78,261.94c-5.37-3.25-9.69-7.57-12.94-12.94-3.26-5.37-4.88-11.23-4.88-17.58v-70.8c0-6.35,1.63-12.21,4.88-17.58s7.57-9.68,12.94-12.94c5.37-3.25,11.23-4.88,17.58-4.88h107.91v37.35h-105.95v50.12c0,9.26,7.51,16.78,16.78,16.78h89.42v37.35h-108.15c-6.35,0-12.21-1.63-17.58-4.88h0Z"/>
  </g>
</svg>