<svg width="21" height="21" viewBox="0 0 21 21" fill="none" xmlns="http://www.w3.org/2000/svg">
<path d="M11.1957 16.714C10.4284 16.714 9.67802 16.714 8.92722 16.714C7.76754 16.7131 6.60741 16.7189 5.44773 16.7091C2.97704 16.6873 0.98933 14.6633 1.00004 12.1899C1.00808 10.3349 2.21597 8.60242 3.92648 8.01172C4.10414 8.48696 4.28224 8.96219 4.44918 9.40801C4.11306 9.64295 3.77203 9.83198 3.48992 10.0865C2.20793 11.2421 2.27489 13.3597 3.60777 14.4573C4.18181 14.9303 4.83798 15.1563 5.5803 15.155C7.35732 15.1514 9.13434 15.1537 10.9114 15.1537H11.1961V16.714H11.1957Z" fill="#E2E5EE"/>
<path d="M18.1513 9.77849C18.4388 9.3514 18.7236 8.92877 19.0168 8.49365C19.5378 8.82935 19.9408 9.26134 20.2689 9.76065C21.3058 11.3384 21.2367 13.4449 20.0747 14.937C19.2052 16.0533 18.0469 16.6511 16.6238 16.7087C16.239 16.7243 15.8534 16.7109 15.4458 16.7109V17.7314C14.3888 17.1201 13.372 16.5321 12.3359 15.9334C13.368 15.34 14.383 14.7564 15.428 14.1555V15.1176C16.8595 15.2602 18.1928 15.1167 19.0548 13.6459C19.752 12.4565 19.4529 10.8444 18.3843 9.97242C18.3098 9.91179 18.2361 9.84937 18.1513 9.77849Z" fill="#E2E5EE"/>
<path d="M17.8364 9.1414C17.8364 9.60193 17.8543 10.0629 17.8324 10.5225C17.7918 11.3727 17.3758 12.0022 16.6183 12.3811C15.8835 12.7489 15.147 12.703 14.456 12.2594C13.8195 11.8506 13.4744 11.2497 13.4579 10.4931C13.4378 9.58766 13.4396 8.68088 13.4566 7.77543C13.478 6.63103 14.4475 5.70552 15.6161 5.6868C16.779 5.66852 17.777 6.57441 17.8302 7.71614C17.852 8.19048 17.8337 8.66661 17.8337 9.1414C17.8346 9.1414 17.8351 9.1414 17.836 9.1414H17.8364ZM16.6767 9.12134C16.6767 8.721 16.6785 8.32022 16.6767 7.91988C16.6732 7.31401 16.2429 6.85839 15.6639 6.84413C15.101 6.83031 14.6364 7.26676 14.6239 7.86638C14.6064 8.71164 14.6073 9.55735 14.6234 10.4026C14.6346 11.0031 15.0859 11.4253 15.6644 11.4191C16.2295 11.4133 16.6691 10.9603 16.6763 10.3674C16.6816 9.95234 16.6772 9.53684 16.6772 9.12134H16.6767Z" fill="#E2E5EE"/>
<path d="M11.31 5.77783C11.339 5.81038 11.3586 5.83044 11.376 5.85273C11.5881 6.12824 11.7996 6.4042 12.0251 6.69755C11.4506 7.12731 10.9015 7.57357 10.5377 8.24006C10.7221 8.24006 10.8814 8.23204 11.0399 8.2414C12.0951 8.30247 12.9285 9.06125 13.0906 10.1045C13.2441 11.0924 12.6683 12.0892 11.726 12.4659C10.7841 12.8422 9.67489 12.5096 9.09728 11.667C8.79241 11.2226 8.67367 10.7228 8.72411 10.1878C8.88883 8.44291 9.62847 7.01496 11.0613 5.96998C11.1439 5.90979 11.2229 5.8456 11.3104 5.77783H11.31ZM10.9163 9.40319C10.336 9.40765 9.88201 9.86015 9.88424 10.4321C9.88648 11.0028 10.3462 11.4535 10.9261 11.4539C11.4738 11.4544 11.9358 10.9809 11.9336 10.4214C11.9318 9.8597 11.4716 9.39918 10.9158 9.40363L10.9163 9.40319Z" fill="#E2E5EE"/>
<path d="M6.49607 9.75067V8.61117C6.89691 8.54608 7.19822 8.3633 7.29597 7.94602C7.39507 7.52294 7.16251 7.09942 6.76345 6.9679C6.33091 6.82524 5.88319 7.01873 5.71313 7.43378C5.63501 7.62459 5.57966 7.8252 5.50244 8.05524C5.13418 7.94156 4.77127 7.82966 4.41016 7.71821C4.61951 6.63444 5.21497 5.95546 6.08585 5.79319C6.92146 5.63715 7.73342 5.9782 8.17131 6.66876C8.67438 7.46142 8.59805 8.25318 7.91822 9.19207C8.31415 9.62897 8.53243 10.1417 8.48958 10.7448C8.45878 11.1791 8.30567 11.5674 8.02222 11.8999C7.43569 12.5883 6.50544 12.813 5.67965 12.4456C4.78913 12.0497 4.43515 11.2611 4.44765 10.3026C4.81011 10.2531 5.17524 10.2027 5.56404 10.1497C5.59127 10.3271 5.61983 10.4849 5.63992 10.6441C5.69929 11.1122 6.04032 11.4425 6.47241 11.4461C6.90539 11.4497 7.27008 11.1256 7.32365 10.69C7.37409 10.2781 7.08885 9.90136 6.63578 9.78233C6.59293 9.77118 6.54919 9.76271 6.49607 9.75067Z" fill="#E2E5EE"/>
<path d="M17.0508 4.78972C17.049 3.93777 17.7878 3.20263 18.6318 3.216C19.484 3.22937 20.1901 3.93911 20.1942 4.78571C20.1982 5.63365 19.4567 6.37236 18.614 6.36032C17.7619 6.34829 17.0526 5.63543 17.0508 4.78972ZM19.0215 4.78705C19.0206 4.57707 18.8296 4.39339 18.6144 4.39607C18.4078 4.39874 18.231 4.5735 18.2265 4.77947C18.2216 4.99792 18.3988 5.17936 18.618 5.18025C18.8363 5.18115 19.022 4.9997 19.0211 4.78705H19.0215Z" fill="#E2E5EE"/>
</svg>
