<svg width="20" height="21" viewBox="0 0 20 21" fill="none" xmlns="http://www.w3.org/2000/svg">
<path d="M17.0731 3.05212C15.8289 2.61564 14.5982 2.31115 13.4155 2.14466C12.2328 1.97817 10.9653 1.93392 9.6454 2.00892C8.27821 2.08841 7.14576 3.11512 6.95077 4.45006L6.73703 5.91925C6.68528 5.926 6.63428 5.93275 6.58253 5.93949C5.39983 6.10599 4.16914 6.41047 2.92494 6.84696C1.632 7.30144 0.834784 8.60188 1.02903 9.94057L1.77899 15.0913C2.13748 17.558 5.42083 19.1067 7.346 19.8109C7.64374 19.9204 7.95197 19.9736 8.25796 19.9736C8.79869 19.9736 9.32966 19.8064 9.77364 19.4817C10.9083 18.6537 12.4323 17.357 13.2512 15.8736C13.2707 15.8383 13.2872 15.8016 13.3007 15.7648C15.2364 14.9751 17.8995 13.5029 18.2205 11.295L18.9705 6.14424C19.1647 4.80554 18.3675 3.5051 17.0738 3.05062L17.0731 3.05212ZM8.88943 18.2705C8.5992 18.4827 8.21446 18.5314 7.86048 18.4032C5.15909 17.4155 3.44017 16.0971 3.26318 14.8761L2.51321 9.72533C2.42096 9.09536 2.80345 8.48038 3.42067 8.26364C4.47438 7.89466 5.51233 7.62767 6.51129 7.46793L6.2008 9.60158C6.17755 9.76208 6.16705 9.92182 6.16855 10.0816C5.93006 9.91807 5.66532 9.84008 5.39683 9.87907C4.85536 9.95707 4.46463 10.4798 4.31763 11.166C4.26888 11.394 4.46313 11.6002 4.69337 11.5672L6.40479 11.3228C6.59603 11.8515 6.89227 12.363 7.24625 12.8459C6.2233 13.1842 5.49283 14.0594 5.19209 15.1236C5.0946 15.4693 5.48758 15.7453 5.78607 15.5458C6.78502 14.8776 7.69698 14.5334 8.72819 14.4689C9.24267 14.9414 9.76089 15.3493 10.2026 15.6726C10.5191 15.9043 10.8776 16.0581 11.2511 16.13C10.4891 17.0398 9.50366 17.8227 8.88868 18.272L8.88943 18.2705ZM17.4848 5.929L16.7348 11.0798C16.5578 12.3007 14.8389 13.6192 12.1383 14.6061C11.7843 14.7351 11.3928 14.6811 11.0898 14.4599C8.78144 12.7709 7.50949 11.0355 7.68649 9.81683L8.4357 4.66605C8.52795 4.03233 9.07317 3.54485 9.7324 3.5066C10.1186 3.4841 10.4989 3.47285 10.8738 3.47285C11.6838 3.47285 12.4653 3.52535 13.207 3.62885C14.2922 3.78109 15.4254 4.06308 16.5773 4.46656C17.1953 4.68405 17.5771 5.29827 17.4856 5.92825L17.4848 5.929ZM14.8989 10.464C14.1842 11.4225 13.0787 11.9955 11.8991 11.8282C10.7201 11.661 9.82089 10.8023 9.40316 9.68408C9.27342 9.33685 9.65815 9.02261 9.98139 9.2041C11.4986 10.0553 12.7848 10.2391 14.4804 9.84457C14.8397 9.76133 15.1194 10.1678 14.8989 10.464ZM15.5559 7.45668C15.6046 7.68467 15.4104 7.89091 15.1802 7.85791L13.3292 7.59317C13.099 7.56017 12.97 7.30819 13.081 7.10269C13.414 6.48472 13.9352 6.09099 14.4774 6.16973C15.0189 6.24773 15.4089 6.77046 15.5559 7.45668ZM9.58015 6.60322C9.91314 5.98524 10.4344 5.59151 10.9766 5.67026C11.5181 5.74825 11.9088 6.27098 12.0558 6.9572C12.1045 7.18519 11.9103 7.39143 11.6801 7.35843L9.82914 7.09369C9.5989 7.0607 9.46991 6.80871 9.5809 6.60322H9.58015Z" fill="#E2E5EE"/>
</svg>
