<svg width="20" height="21" viewBox="0 0 20 21" fill="none" xmlns="http://www.w3.org/2000/svg">
<path d="M11.0042 7.76663L12.049 6.68888L13.2715 7.87388L15.6925 5.49338L16.744 6.56288L14.152 9.11213C13.921 9.34388 13.6068 9.47363 13.2723 9.47363C12.9378 9.47363 12.6243 9.34313 12.388 9.10688L11.0042 7.76663ZM8.5 7.22363C8.5 4.32863 10.8558 1.97363 13.75 1.97363C16.6442 1.97363 19 4.32863 19 7.22363C19 10.1186 16.6442 12.4736 13.75 12.4736C10.8558 12.4736 8.5 10.1186 8.5 7.22363ZM10 7.22363C10 9.29138 11.6823 10.9736 13.75 10.9736C15.8177 10.9736 17.5 9.29138 17.5 7.22363C17.5 5.15588 15.8177 3.47363 13.75 3.47363C11.6823 3.47363 10 5.15588 10 7.22363ZM16 14.7236H18.625V17.3486C18.625 18.7961 17.4475 19.9736 16 19.9736H7.375C5.9275 19.9736 4.75 18.7961 4.75 17.3486V7.22363H1V4.59863C1 3.15113 2.1775 1.97363 3.625 1.97363H9.508C8.97925 2.40113 8.5165 2.90738 8.137 3.47363H5.9965C6.15925 3.81488 6.25 4.19663 6.25 4.59863V17.3486C6.25 17.9689 6.75475 18.4736 7.375 18.4736C7.99525 18.4736 8.5 17.9689 8.5 17.3486V14.7236H14.5V13.9316C15.0205 13.8739 15.5223 13.7576 16 13.5889V14.7236ZM4.75 4.59863C4.75 3.97838 4.24525 3.47363 3.625 3.47363C3.00475 3.47363 2.5 3.97838 2.5 4.59863V5.72363H4.75V4.59863ZM10 16.2236V17.3486C10 17.7514 9.90925 18.1324 9.7465 18.4736H16C16.6202 18.4736 17.125 17.9689 17.125 17.3486V16.2236H10Z" fill="white"/>
</svg>
