<svg width="21" height="21" viewBox="0 0 21 21" fill="none" xmlns="http://www.w3.org/2000/svg">
<path fill-rule="evenodd" clip-rule="evenodd" d="M7 5.07363V4.17363C7 3.45755 7.28446 2.77079 7.79081 2.26444C8.29716 1.7581 8.98392 1.47363 9.7 1.47363L11.5 1.47363C12.2161 1.47363 12.9028 1.7581 13.4092 2.26444C13.9155 2.77079 14.2 3.45755 14.2 4.17363V5.07363H15.148C15.5078 5.07375 15.864 5.14579 16.1955 5.28551C16.5271 5.42523 16.8274 5.62981 17.0788 5.88723L19.4308 8.29563C19.924 8.79963 20.2 9.47763 20.2 10.1832V16.7736C20.2 17.4897 19.9155 18.1765 19.4092 18.6828C18.9028 19.1892 18.2161 19.4736 17.5 19.4736H3.7C2.98392 19.4736 2.29716 19.1892 1.79081 18.6828C1.28446 18.1765 1 17.4897 1 16.7736L1 10.1832C1 9.47763 1.276 8.80083 1.768 8.29563L4.1212 5.88723C4.37273 5.62966 4.67323 5.425 5.00502 5.28528C5.33681 5.14555 5.69319 5.07359 6.0532 5.07363H7ZM8.8 4.17363C8.8 3.93494 8.89482 3.70602 9.0636 3.53724C9.23239 3.36845 9.46131 3.27363 9.7 3.27363H11.5C11.7387 3.27363 11.9676 3.36845 12.1364 3.53724C12.3052 3.70602 12.4 3.93494 12.4 4.17363V5.07363H8.8V4.17363ZM5.4088 7.14483C5.49269 7.05893 5.59292 6.99068 5.70359 6.9441C5.81426 6.89753 5.93313 6.87357 6.0532 6.87363H15.1468C15.2669 6.87357 15.3857 6.89753 15.4964 6.9441C15.6071 6.99068 15.7073 7.05893 15.7912 7.14483L18.1432 9.55443C18.3076 9.72245 18.3998 9.94814 18.4 10.1832V11.0736H13.6V10.7736C13.6 9.94563 12.928 9.27363 12.1 9.27363H9.1C8.272 9.27363 7.6 9.94563 7.6 10.7736V11.0736H2.8V10.1832C2.79987 9.94831 2.8916 9.72264 3.0556 9.55443L5.4088 7.14483ZM7.6 12.8736H2.8V16.7736C2.8 17.2704 3.2032 17.6736 3.7 17.6736H17.5C17.7387 17.6736 17.9676 17.5788 18.1364 17.41C18.3052 17.2412 18.4 17.0123 18.4 16.7736V12.8736H13.6V13.1736C13.6 14.0016 12.928 14.6736 12.1 14.6736H9.1C8.272 14.6736 7.6 14.0016 7.6 13.1736V12.8736ZM9.4 12.8736V11.0736H11.8V12.8736H9.4Z" fill="white"/>
</svg>
