<svg width="19" height="19" viewBox="0 0 19 19" fill="none" xmlns="http://www.w3.org/2000/svg">
<path d="M3.5 10.2236H5.75V11.7236H3.5V10.2236ZM7.25 11.7236H9.5V10.2236H7.25V11.7236ZM3.5 14.7236H5.75V13.2236H3.5V14.7236ZM7.25 14.7236H9.5V13.2236H7.25V14.7236ZM3.5 5.72363H5.75V4.22363H3.5V5.72363ZM7.25 5.72363H9.5V4.22363H7.25V5.72363ZM3.5 8.72363H5.75V7.22363H3.5V8.72363ZM7.25 8.72363H9.5V7.22363H7.25V8.72363ZM18.5 6.47363V18.4736H0.5V2.72363C0.5 2.1269 0.737053 1.5546 1.15901 1.13264C1.58097 0.710686 2.15326 0.473633 2.75 0.473633L10.25 0.473633C10.8467 0.473633 11.419 0.710686 11.841 1.13264C12.2629 1.5546 12.5 2.1269 12.5 2.72363V4.22363H16.25C16.8467 4.22363 17.419 4.46069 17.841 4.88264C18.2629 5.3046 18.5 5.8769 18.5 6.47363ZM11 2.72363C11 2.52472 10.921 2.33395 10.7803 2.1933C10.6397 2.05265 10.4489 1.97363 10.25 1.97363H2.75C2.55109 1.97363 2.36032 2.05265 2.21967 2.1933C2.07902 2.33395 2 2.52472 2 2.72363V16.9736H11V2.72363ZM17 6.47363C17 6.27472 16.921 6.08396 16.7803 5.9433C16.6397 5.80265 16.4489 5.72363 16.25 5.72363H12.5V16.9736H17V6.47363ZM14 11.7236H15.5V10.2236H14V11.7236ZM14 14.7236H15.5V13.2236H14V14.7236ZM14 8.72363H15.5V7.22363H14V8.72363Z" fill="white"/>
</svg>
