<svg width="20" height="21" viewBox="0 0 20 21" fill="none" xmlns="http://www.w3.org/2000/svg">
<path d="M9.61108 5.81276L14.0704 4.98222C14.4933 5.80328 15.3887 6.37952 16.4059 6.37952C17.8209 6.37954 19 5.26455 19 3.92657C19 2.58858 17.8209 1.47363 16.4059 1.47363C15.1467 1.47363 14.0743 2.3566 13.8534 3.49394L9.31177 4.33982C8.81053 3.34769 7.74315 2.67123 6.49113 2.67123C4.74947 2.67123 3.36508 3.98029 3.36508 5.62715C3.36508 7.274 4.74949 8.58307 6.49113 8.58307C6.96345 8.58307 7.4094 8.48662 7.80869 8.31344L11.1293 11.4533C10.4959 12.0944 10.1085 12.9556 10.1085 13.9037C10.1085 14.0082 10.1135 14.1116 10.1227 14.2138L5.51126 15.6246C5.04602 15.0635 4.32425 14.6982 3.52515 14.6982C2.14779 14.6982 1 15.7835 1 17.0859C1 18.3883 2.14779 19.4736 3.52515 19.4736C4.90255 19.4736 6.05034 18.3883 6.05034 17.0859C6.05034 17.0693 6.05002 17.0528 6.04968 17.0363L10.5856 15.6486C11.2334 16.7495 12.4757 17.4931 13.9045 17.4931C16.0034 17.4931 17.7004 15.8885 17.7004 13.9038C17.7004 11.9191 16.0034 10.3144 13.9045 10.3144C13.3906 10.3144 12.9011 10.4108 12.4544 10.5851L9.0374 7.35411C9.36784 6.91669 9.57432 6.38838 9.61108 5.81276ZM3.52515 18.0489C2.9549 18.0489 2.50676 17.6252 2.50676 17.0859C2.50676 16.5467 2.9549 16.123 3.52515 16.123C4.09552 16.123 4.54359 16.5467 4.54359 17.0859C4.54359 17.6252 4.09549 18.0489 3.52515 18.0489ZM16.4059 2.91638C17.0041 2.91638 17.4742 3.36086 17.4742 3.9266C17.4742 4.49233 17.0041 4.93679 16.4059 4.93679C15.8076 4.93679 15.3374 4.49231 15.3374 3.9266C15.3374 3.36088 15.8076 2.91638 16.4059 2.91638ZM4.89361 5.62717C4.89361 4.79637 5.61253 4.1166 6.49113 4.1166C7.36977 4.1166 8.08864 4.79637 8.08864 5.62717C8.08864 6.45797 7.36977 7.13773 6.49113 7.13773C5.61255 7.13773 4.89361 6.45797 4.89361 5.62717ZM16.058 13.9038C16.058 15.0145 15.0791 15.9401 13.9044 15.9401C12.7297 15.9401 11.7508 15.0145 11.7508 13.9038C11.7508 12.7931 12.7297 11.8674 13.9044 11.8674C15.0791 11.8674 16.058 12.7931 16.058 13.9038Z" fill="white"/>
</svg>
