<svg width="20" height="21" viewBox="0 0 20 21" fill="none" xmlns="http://www.w3.org/2000/svg">
<path d="M11.127 10.4732C11.127 12.1277 12.4754 13.4731 14.1334 13.4731C15.7914 13.4731 17.1397 12.1277 17.1397 10.4732C17.1397 8.81882 15.7914 7.47337 14.1334 7.47337C12.4754 7.47337 11.127 8.81882 11.127 10.4732ZM14.1334 8.97331C14.9624 8.97331 15.6365 9.64603 15.6365 10.4732C15.6365 11.3005 14.9624 11.9732 14.1334 11.9732C13.3044 11.9732 12.6302 11.3005 12.6302 10.4732C12.6302 9.64603 13.3044 8.97331 14.1334 8.97331ZM9.99962 7.47337C11.6576 7.47337 13.006 6.12793 13.006 4.4735C13.006 2.81907 11.6576 1.47363 9.99962 1.47363C8.34162 1.47363 6.99328 2.81907 6.99328 4.4735C6.99328 6.12793 8.34162 7.47337 9.99962 7.47337ZM9.99962 2.97357C10.8286 2.97357 11.5028 3.64629 11.5028 4.4735C11.5028 5.30072 10.8286 5.97344 9.99962 5.97344C9.17062 5.97344 8.49645 5.30072 8.49645 4.4735C8.49645 3.64629 9.17062 2.97357 9.99962 2.97357ZM5.8659 13.4731C7.5239 13.4731 8.87224 12.1277 8.87224 10.4732C8.87224 8.81882 7.5239 7.47337 5.8659 7.47337C4.2079 7.47337 2.85955 8.81882 2.85955 10.4732C2.85955 12.1277 4.2079 13.4731 5.8659 13.4731ZM5.8659 8.97331C6.6949 8.97331 7.36907 9.64603 7.36907 10.4732C7.36907 11.3005 6.6949 11.9732 5.8659 11.9732C5.0369 11.9732 4.36272 11.3005 4.36272 10.4732C4.36272 9.64603 5.0369 8.97331 5.8659 8.97331ZM18.9969 18.6554C19.0344 19.0679 18.7293 19.4324 18.3159 19.4699C18.2934 19.4714 18.2701 19.4729 18.2475 19.4729C17.8627 19.4729 17.535 19.1796 17.4997 18.7904C17.417 17.8762 16.9458 17.0242 16.2062 16.452C16.1874 16.437 16.1258 16.4437 16.086 16.4887L14.7023 18.0884C14.5603 18.2534 14.3378 18.3801 14.1334 18.3487C13.9169 18.3487 13.711 18.2557 13.5682 18.0937L12.1664 16.4992C12.1281 16.455 12.0665 16.4467 12.0462 16.4632C11.3051 17.0437 10.8504 17.8702 10.7677 18.7911C10.7354 19.1481 10.4573 19.4061 10.1116 19.4519C10.0898 19.4556 10.071 19.4684 10.0485 19.4706C10.0252 19.4721 10.0026 19.4736 9.98008 19.4736C9.97257 19.4736 9.96655 19.4699 9.95979 19.4699C9.95678 19.4699 9.95453 19.4714 9.95152 19.4706C9.94326 19.4706 9.93649 19.4646 9.92822 19.4639C9.56671 19.4384 9.26532 19.1624 9.23225 18.7911C9.14883 17.8634 8.68961 17.0332 7.93952 16.4527C7.91773 16.437 7.85685 16.4445 7.81927 16.4895L6.4356 18.0892C6.2928 18.2549 6.08386 18.3509 5.86665 18.3494C5.65019 18.3494 5.44426 18.2564 5.30146 18.0937L3.89975 16.4992C3.86066 16.4557 3.79903 16.4475 3.77949 16.464C3.03768 17.0445 2.58297 17.8709 2.50029 18.7919C2.46346 19.2044 2.10345 19.5029 1.68407 19.4714C1.2707 19.4339 0.965551 19.0694 1.00313 18.6569C1.12188 17.3392 1.79605 16.11 2.85203 15.2828C3.51042 14.7683 4.46644 14.8688 5.02938 15.51L5.86139 16.4565L6.68062 15.5093C7.24055 14.8606 8.19807 14.7541 8.86022 15.2678C9.31718 15.621 9.69824 16.053 9.99962 16.5315C10.2973 16.0598 10.6708 15.6338 11.1187 15.2828C11.7756 14.7691 12.7331 14.8681 13.2961 15.5108L14.1281 16.4565L14.9473 15.5093C15.5073 14.8606 16.4655 14.7556 17.1262 15.267C18.1942 16.0935 18.8751 17.3287 18.9954 18.6561L18.9969 18.6554Z" fill="white"/>
</svg>
