<svg width="20" height="21" viewBox="0 0 20 21" fill="none" xmlns="http://www.w3.org/2000/svg">
<path d="M18.8738 8.14016C18.7203 7.63567 18.4138 7.19559 17.9995 6.88498C17.5851 6.57438 17.085 6.40974 16.5731 6.41542H13.2958L12.3004 3.21078C12.1438 2.70634 11.8362 2.26629 11.4219 1.95408C11.0076 1.64187 10.508 1.47363 9.99518 1.47363C9.48234 1.47363 8.98275 1.64187 8.56845 1.95408C8.15415 2.26629 7.84655 2.70634 7.69001 3.21078L6.69458 6.41542H3.41724C2.90696 6.41617 2.40995 6.58346 1.99722 6.89341C1.58448 7.20335 1.27713 7.64008 1.11907 8.14123C0.960997 8.64238 0.960298 9.18231 1.11707 9.68389C1.27384 10.1855 1.58005 10.6231 1.99198 10.9341L4.65947 12.9487L3.64528 16.1928C3.48139 16.696 3.47931 17.2404 3.63936 17.7448C3.79942 18.2493 4.11303 18.6869 4.53344 18.9922C4.94666 19.3074 5.4474 19.4763 5.96107 19.4736C6.47473 19.4709 6.97382 19.2969 7.38396 18.9775L9.99518 16.9924L12.6072 18.9752C13.0196 19.2886 13.5177 19.4588 14.0297 19.4613C14.5417 19.4639 15.0413 19.2987 15.4567 18.9895C15.8721 18.6803 16.1819 18.243 16.3415 17.7405C16.5012 17.238 16.5024 16.6961 16.3451 16.1928L15.3309 12.9487L18.0014 10.9341C18.418 10.627 18.7278 10.1894 18.885 9.68618C19.0421 9.18298 19.0382 8.64089 18.8738 8.14016ZM17.1162 9.68282L14.0077 12.0297C13.88 12.1259 13.785 12.2613 13.7362 12.4166C13.6875 12.5719 13.6874 12.7391 13.7361 12.8944L14.9176 16.6678C14.9774 16.8592 14.9768 17.0652 14.9161 17.2563C14.8554 17.4473 14.7376 17.6136 14.5796 17.7311C14.4216 17.8487 14.2316 17.9114 14.0369 17.9104C13.8422 17.9094 13.6529 17.8446 13.4961 17.7254L10.4393 15.401C10.3105 15.3033 10.1549 15.2506 9.99518 15.2506C9.83543 15.2506 9.67985 15.3033 9.5511 15.401L6.4943 17.7254C6.33758 17.8462 6.14769 17.9123 5.95215 17.9142C5.75661 17.916 5.56559 17.8534 5.40677 17.7356C5.24796 17.6177 5.12961 17.4507 5.06889 17.2587C5.00816 17.0667 5.00822 16.8597 5.06904 16.6678L6.25425 12.8944C6.30295 12.7391 6.30292 12.5719 6.25415 12.4166C6.20539 12.2613 6.11039 12.1259 5.98271 12.0297L2.87414 9.68282C2.71759 9.56442 2.60127 9.39795 2.54179 9.20719C2.48231 9.01643 2.48271 8.81113 2.54295 8.62062C2.60318 8.43011 2.72016 8.26413 2.87717 8.1464C3.03419 8.02866 3.22321 7.96519 3.41724 7.96505H7.24293C7.40175 7.96504 7.55647 7.91298 7.6848 7.81634C7.81314 7.71971 7.90847 7.5835 7.95706 7.42733L9.11977 3.68419C9.17946 3.49265 9.29644 3.3256 9.45389 3.2071C9.61133 3.0886 9.80112 3.02475 9.99593 3.02475C10.1907 3.02475 10.3805 3.0886 10.538 3.2071C10.6954 3.3256 10.8124 3.49265 10.8721 3.68419L12.0348 7.42733C12.0834 7.5835 12.1787 7.71971 12.3071 7.81634C12.4354 7.91298 12.5901 7.96504 12.7489 7.96505H16.5746C16.7687 7.96519 16.9577 8.02866 17.1147 8.1464C17.2717 8.26413 17.3887 8.43011 17.4489 8.62062C17.5092 8.81113 17.5096 9.01643 17.4501 9.20719C17.3906 9.39795 17.2743 9.56442 17.1177 9.68282H17.1162Z" fill="white"/>
</svg>
