<svg width="19" height="19" viewBox="0 0 19 19" fill="none" xmlns="http://www.w3.org/2000/svg">
<rect x="0.5" y="18.4736" width="18" height="18" rx="2" transform="rotate(-90 0.5 18.4736)" fill="#435175"/>
<path d="M14.1607 6.47365L4.83935 6.47365C4.6736 6.47273 4.51131 6.51865 4.37319 6.60556C4.23506 6.69246 4.12735 6.81641 4.06379 6.9616C4.00023 7.10679 3.9837 7.26665 4.0163 7.42079C4.04891 7.57492 4.12917 7.71636 4.24686 7.82706L8.91168 12.2435C9.06803 12.3909 9.27954 12.4736 9.5 12.4736C9.72046 12.4736 9.93197 12.3909 10.0883 12.2435L14.7531 7.82706C14.8708 7.71636 14.9511 7.57492 14.9837 7.42079C15.0163 7.26665 14.9998 7.10679 14.9362 6.9616C14.8726 6.81641 14.7649 6.69246 14.6268 6.60556C14.4887 6.51865 14.3264 6.47273 14.1607 6.47365Z" fill="#D7DBE1"/>
</svg>
