<svg width="19" height="19" viewBox="0 0 19 19" fill="none" xmlns="http://www.w3.org/2000/svg">
<rect x="18.5" y="0.473633" width="18" height="18" rx="2" transform="rotate(90 18.5 0.473633)" fill="#435175"/>
<path d="M4.83935 12.4736L14.1607 12.4736C14.3264 12.4745 14.4887 12.4286 14.6268 12.3417C14.7649 12.2548 14.8726 12.1309 14.9362 11.9857C14.9998 11.8405 15.0163 11.6806 14.9837 11.5265C14.9511 11.3723 14.8708 11.2309 14.7531 11.1202L10.0883 6.70379C9.93197 6.55637 9.72046 6.47363 9.5 6.47363C9.27954 6.47363 9.06803 6.55637 8.91168 6.70379L4.24686 11.1202C4.12917 11.2309 4.04891 11.3723 4.0163 11.5265C3.9837 11.6806 4.00023 11.8405 4.06379 11.9857C4.12735 12.1309 4.23506 12.2548 4.37319 12.3417C4.51131 12.4286 4.6736 12.4745 4.83935 12.4736Z" fill="#D7DBE1"/>
</svg>
