<svg width="20" height="21" viewBox="0 0 20 21" fill="none" xmlns="http://www.w3.org/2000/svg">
<path d="M17.5 5.77001V2.97701C17.5 2.56301 17.1647 2.22701 16.75 2.22701C16.3352 2.22701 16 2.56301 16 2.97701V4.75151L12.0977 2.11826C10.8235 1.25876 9.1765 1.25876 7.90225 2.11826L2.65225 5.66126C1.618 6.35951 1 7.52126 1 8.77001V15.727C1 17.7948 2.68225 19.477 4.75 19.477H7C7.41475 19.477 7.75 19.141 7.75 18.727V12.727C7.75 12.3138 8.086 11.977 8.5 11.977H11.5C11.914 11.977 12.25 12.3138 12.25 12.727V18.727C12.25 19.141 12.5852 19.477 13 19.477H15.25C17.3177 19.477 19 17.7948 19 15.727V8.77001C19 7.58426 18.442 6.47651 17.5 5.77001ZM17.5 15.727C17.5 16.9675 16.4905 17.977 15.25 17.977H13.75V12.727C13.75 11.4865 12.7405 10.477 11.5 10.477H8.5C7.2595 10.477 6.25 11.4865 6.25 12.727V17.977H4.75C3.5095 17.977 2.5 16.9675 2.5 15.727V8.77001C2.5 8.02076 2.8705 7.32326 3.4915 6.90476L8.7415 3.36176C9.5065 2.84576 10.4935 2.84576 11.2577 3.36176L16.5077 6.90476C17.1287 7.32326 17.4993 8.02076 17.4993 8.77001L17.5 15.727Z" fill="#F1F5F9"/>
</svg>
